<?xml version="1.0" encoding="UTF-8" standalone="no"?>
<svg
   xmlns:dc="http://purl.org/dc/elements/1.1/"
   xmlns:cc="http://creativecommons.org/ns#"
   xmlns:rdf="http://www.w3.org/1999/02/22-rdf-syntax-ns#"
   xmlns:svg="http://www.w3.org/2000/svg"
   xmlns="http://www.w3.org/2000/svg"
   xmlns:sodipodi="http://sodipodi.sourceforge.net/DTD/sodipodi-0.dtd"
   xmlns:inkscape="http://www.inkscape.org/namespaces/inkscape"
   id="Layer_1_copy"
   height="31.489626"
   viewBox="0 0 3.9999998 3.9362032"
   width="31.999998"
   data-name="Layer 1 copy"
   version="1.1"
   sodipodi:docname="asian.svg"
   inkscape:version="0.92.5 (0.92.5+68)">
  <metadata
     id="metadata61">
    <rdf:RDF>
      <cc:Work
         rdf:about="">
        <dc:format>image/svg+xml</dc:format>
        <dc:type
           rdf:resource="http://purl.org/dc/dcmitype/StillImage" />
        <dc:title></dc:title>
      </cc:Work>
    </rdf:RDF>
  </metadata>
  <defs
     id="defs59" />
  <sodipodi:namedview
     pagecolor="#ffffff"
     bordercolor="#666666"
     borderopacity="1"
     objecttolerance="10"
     gridtolerance="10"
     guidetolerance="10"
     inkscape:pageopacity="0"
     inkscape:pageshadow="2"
     inkscape:window-width="1366"
     inkscape:window-height="700"
     id="namedview57"
     showgrid="false"
     fit-margin-top="0"
     fit-margin-left="0"
     fit-margin-right="0"
     fit-margin-bottom="0"
     inkscape:zoom="7.375"
     inkscape:cx="48.974072"
     inkscape:cy="-7.0274661"
     inkscape:window-x="0"
     inkscape:window-y="0"
     inkscape:window-maximized="1"
     inkscape:current-layer="Layer_1_copy" />
  <path
     d="M 3.6183133,1.9683486 C 3.2374382,1.3126086 1.8408962,1.7144316 1.8408962,1.7144316 l 0.6925579,0.380875 z"
     id="path2"
     inkscape:connector-curvature="0"
     style="fill:#bcbec0;stroke-width:0.99999994" />
  <path
     d="m 2.1963796,1.7652156 0.3624661,0.199324 0.7966638,-0.09331 C 3.0698531,1.6776136 2.5651937,1.7023706 2.1963796,1.7652156 Z"
     id="path4"
     inkscape:connector-curvature="0"
     style="fill:#bcbec0;stroke-width:0.99999994" />
  <path
     d="m 1.1426252,3.5553276 h 1.6504587 v 0.317396 H 1.1426252 Z"
     id="path6"
     inkscape:connector-curvature="0"
     style="fill:#a06c04;stroke-width:0.99999994" />
  <path
     d="m 1.2695836,3.7457656 h 1.396542 v -0.06348 h -1.396542 z"
     id="path8"
     inkscape:connector-curvature="0"
     style="fill:#a06c04;stroke-width:0.99999994" />
  <path
     d="m 0.5078334,1.9683486 c 0,0 0.3808751,-0.444354 0.7617502,-0.380875 0.3808751,0.06348 1.3330628,0.380875 1.3330628,0.380875 z"
     id="path10"
     inkscape:connector-curvature="0"
     style="fill:#e6e7e8;stroke-width:0.99999994" />
  <path
     d="m 0.1269584,1.0161606 c 0,0 -0.063479,0.444354 0.5713126,0.380875 0,0 -0.063479,-0.57131195 -0.5713126,-0.380875 z"
     id="path12"
     inkscape:connector-curvature="0"
     style="fill:#3bb03c;stroke-width:0.99999994" />
  <path
     d="m 0.2596298,1.1101096 a 0.19043754,0.19043754 0 0 0 0.047609,0.0857 0.3402484,0.3402484 0 0 0 0.2266207,0.07935 0.30279569,0.30279569 0 0 0 -0.1104538,-0.143463 0.22915984,0.22915984 0 0 0 -0.1637763,-0.02158 z"
     id="path14"
     inkscape:connector-curvature="0"
     style="fill:#3bb03c;stroke-width:0.99999994" />
  <path
     d="m 3.1580892,1.3475226 c 0,0 0.3757968,0.245664 0.5871824,-0.35611895 0,0 -0.5446513,-0.184724 -0.5871824,0.35611895 z"
     id="path16"
     inkscape:connector-curvature="0"
     style="fill:#3bb03c;stroke-width:0.99999994" />
  <path
     d="m 3.3009174,1.2669036 a 0.19043754,0.19043754 0 0 0 0.097758,-0.007 0.3402484,0.3402484 0 0 0 0.1682198,-0.172028 0.30343048,0.30343048 0 0 0 -0.1764721,0.03936 0.22979463,0.22979463 0 0 0 -0.089506,0.139654 z"
     id="path18"
     inkscape:connector-curvature="0"
     style="fill:#3bb03c;stroke-width:0.99999994" />
  <path
     d="m 3.87223,1.9683486 v 0.444354 A 1.1426252,1.1426252 0 0 1 2.7296047,3.5553276 H 1.2061044 A 1.1426252,1.1426252 0 0 1 0.0634792,2.4127026 v -0.444354 z"
     id="path20"
     inkscape:connector-curvature="0"
     style="fill:#fdca2f;stroke-width:0.99999994" />
  <path
     d="m 3.87223,1.9683486 v 0.444354 A 1.1426252,1.1426252 0 0 1 2.7296047,3.5553276 H 1.2061044 A 1.1305642,1.1305642 0 0 1 0.585278,3.3712386 v -0.0044 a 0.69001869,0.69001869 0 0 1 0.069827,-0.100297 c 0.1440978,-0.18155 0.527512,-0.553538 1.2981493,-0.630983 a 2.2712851,2.2712851 0 0 0 1.2270525,-0.540208 c 0.057131,-0.04888 0.1028363,-0.09204 0.137115,-0.126958 z"
     id="path22"
     inkscape:connector-curvature="0"
     style="fill:#f2b41c;stroke-width:0.99999994" />
  <g
     id="g54"
     transform="matrix(0.06347918,0,0,0.06347918,-0.06347918,-0.12646435)"
     style="fill:#032030;stroke-width:15.75319576">
    <path
       d="M 44,59 H 20 A 19,19 0 0 1 1,40 v -7 a 1,1 0 0 1 1,-1 h 15 a 1,1 0 0 1 0,2 H 3 v 6 a 17,17 0 0 0 17,17 h 24 a 17,17 0 0 0 17,-17 1,1 0 0 1 2,0 19,19 0 0 1 -19,19 z"
       id="path24"
       inkscape:connector-curvature="0"
       style="stroke-width:15.75319576" />
    <path
       d="M 62,37 A 1,1 0 0 1 61,36 V 34 H 21 a 1,1 0 0 1 0,-2 h 41 a 1,1 0 0 1 1,1 v 3 a 1,1 0 0 1 -1,1 z"
       id="path26"
       inkscape:connector-curvature="0"
       style="stroke-width:15.75319576" />
    <path
       d="M 45,64 H 19 a 1,1 0 0 1 -1,-1 v -5 a 1,1 0 0 1 1,-1 h 26 a 1,1 0 0 1 1,1 v 5 a 1,1 0 0 1 -1,1 z M 20,62 H 44 V 59 H 20 Z"
       id="path28"
       inkscape:connector-curvature="0"
       style="stroke-width:15.75319576" />
    <path
       d="m 12.87,56.49 -1.75,-1 c 0.21,-0.39 5.43,-9.47 20.77,-11 14.39,-1.44 23.24,-12 23.33,-12.14 l 1.55,1.27 C 56.4,34.1 47.34,45 32.1,46.5 17.86,47.92 12.92,56.4 12.87,56.49 Z"
       id="path30"
       inkscape:connector-curvature="0"
       style="stroke-width:15.75319576" />
    <path
       d="m 41.68,33.95 c -0.15,0 -15,-5 -20.85,-6 -5.37,-0.89 -11,5.6 -11.08,5.66 L 8.23,32.31 C 8.5,32 14.69,24.94 21.16,26 c 6,1 20.54,5.83 21.15,6 z"
       id="path32"
       inkscape:connector-curvature="0"
       style="stroke-width:15.75319576" />
    <path
       d="M 57.14,33.5 C 51.59,24 30.49,29.9 30.28,30 l -0.56,-2 c 0.93,-0.27 22.82,-6.42 29.14,4.46 z"
       id="path34"
       inkscape:connector-curvature="0"
       style="stroke-width:15.75319576" />
    <path
       d="M 16,10 A 1.0017984,1.0017984 0 0 1 15.88,8 l 47,-6 a 1.0077822,1.0077822 0 1 1 0.25,2 l -47,6 z"
       id="path36"
       inkscape:connector-curvature="0"
       style="stroke-width:15.75319576" />
    <path
       d="m 13,15 a 1,1 0 0 1 0,-2 l 50,-1 a 1,1 0 0 1 1,1 1,1 0 0 1 -1,1 z"
       id="path38"
       inkscape:connector-curvature="0"
       style="stroke-width:15.75319576" />
    <path
       d="M 28,29 A 1,1 0 0 1 27,28 V 11 a 1,1 0 0 1 2,0 v 17 a 1,1 0 0 1 -1,1 z"
       id="path40"
       inkscape:connector-curvature="0"
       style="stroke-width:15.75319576" />
    <path
       d="m 21.88,28 a 1,1 0 0 1 -1,-1 V 5 a 1,1 0 0 1 2,0 v 22 a 1,1 0 0 1 -1,1 z"
       id="path42"
       inkscape:connector-curvature="0"
       style="stroke-width:15.75319576" />
    <path
       d="M 34,29 A 1,1 0 0 1 33,28 V 3 a 1,1 0 0 1 2,0 v 25 a 1,1 0 0 1 -1,1 z"
       id="path44"
       inkscape:connector-curvature="0"
       style="stroke-width:15.75319576" />
    <path
       d="m 10.14,25.1 c -2.89,0 -5.07,-0.75 -6.49,-2.23 a 6.42,6.42 0 0 1 -1.64,-5 1,1 0 0 1 0.64,-0.79 c 2.58,-1 4.81,-0.9 6.61,0.21 3.19,2 3.72,6.43 3.74,6.62 A 1,1 0 0 1 12.1,25 q -1.03,0.1 -1.96,0.1 z M 4,18.72 a 4.27,4.27 0 0 0 1.11,2.78 c 1.13,1.16 3,1.69 5.69,1.58 A 6.79,6.79 0 0 0 8.2,19 5.06,5.06 0 0 0 4,18.72 Z"
       id="path46"
       inkscape:connector-curvature="0"
       style="stroke-width:15.75319576" />
    <path
       d="M 53.57,25 A 6.65,6.65 0 0 1 50.2,24.05 1,1 0 0 1 49.75,23.13 c 0.22,-2.75 1.22,-4.73 3,-5.9 3.12,-2.06 7.4,-0.64 7.58,-0.58 a 1,1 0 0 1 0.62,1.28 c -1.29,3.68 -3.14,6 -5.5,6.75 A 5.79,5.79 0 0 1 53.57,25 Z m -1.75,-2.36 a 4.27,4.27 0 0 0 3,0.15 c 1.53,-0.53 2.82,-2 3.84,-4.49 a 6.79,6.79 0 0 0 -4.83,0.61 5.06,5.06 0 0 0 -2.01,3.73 z"
       id="path48"
       inkscape:connector-curvature="0"
       style="stroke-width:15.75319576" />
    <path
       d="m 13,41 h -1 a 1,1 0 0 1 0,-2 h 1 a 1,1 0 0 1 0,2 z"
       id="path50"
       inkscape:connector-curvature="0"
       style="stroke-width:15.75319576" />
    <path
       d="m 17,41 h -1 a 1,1 0 0 1 0,-2 h 1 a 1,1 0 0 1 0,2 z"
       id="path52"
       inkscape:connector-curvature="0"
       style="stroke-width:15.75319576" />
  </g>
</svg>
