<?xml version="1.0" encoding="UTF-8" standalone="no"?>
<!-- Generator: Adobe Illustrator 19.0.0, SVG Export Plug-In . SVG Version: 6.00 Build 0)  -->

<svg
   xmlns:dc="http://purl.org/dc/elements/1.1/"
   xmlns:cc="http://creativecommons.org/ns#"
   xmlns:rdf="http://www.w3.org/1999/02/22-rdf-syntax-ns#"
   xmlns:svg="http://www.w3.org/2000/svg"
   xmlns="http://www.w3.org/2000/svg"
   xmlns:sodipodi="http://sodipodi.sourceforge.net/DTD/sodipodi-0.dtd"
   xmlns:inkscape="http://www.inkscape.org/namespaces/inkscape"
   version="1.1"
   id="Layer_1"
   x="0px"
   y="0px"
   viewBox="0 0 23.818396 32"
   xml:space="preserve"
   sodipodi:docname="cafe.svg"
   inkscape:version="0.92.5 (0.92.5+68)"
   width="23.818396"
   height="32"><metadata
   id="metadata65"><rdf:RDF><cc:Work
       rdf:about=""><dc:format>image/svg+xml</dc:format><dc:type
         rdf:resource="http://purl.org/dc/dcmitype/StillImage" /><dc:title></dc:title></cc:Work></rdf:RDF></metadata><defs
   id="defs63" /><sodipodi:namedview
   pagecolor="#ffffff"
   bordercolor="#666666"
   borderopacity="1"
   objecttolerance="10"
   gridtolerance="10"
   guidetolerance="10"
   inkscape:pageopacity="0"
   inkscape:pageshadow="2"
   inkscape:window-width="1366"
   inkscape:window-height="700"
   id="namedview61"
   showgrid="false"
   inkscape:zoom="1.3037307"
   inkscape:cx="182.84318"
   inkscape:cy="138.13622"
   inkscape:window-x="267"
   inkscape:window-y="1080"
   inkscape:window-maximized="1"
   inkscape:current-layer="Layer_1"
   fit-margin-top="0"
   fit-margin-left="0"
   fit-margin-right="0"
   fit-margin-bottom="0" />
<path
   style="fill:#46c79c;stroke-width:1.00000012"
   d="m 15.598617,12.074991 c -0.05244,0 -0.1055,-0.004 -0.158875,-0.0116 -0.593815,-0.0869 -1.004629,-0.63893 -0.917628,-1.23281 l 1.377754,-9.4015998 c 0.087,-0.59374998 0.639003,-1.00424998 1.232755,-0.91774998 0.593814,0.0871 1.004628,0.63905998 0.91769,1.23281998 l -1.377817,9.4017798 c -0.07919,0.54031 -0.543439,0.92919 -1.073879,0.92919 z"
   id="path2"
   inkscape:connector-curvature="0" />
<path
   style="fill:#c3ddf7;stroke-width:1.00000012"
   d="m 22.085953,11.053171 c 0.06256,-0.474 -0.277439,-0.86187 -0.755566,-0.86187 H 2.487946 c -0.478127,0 -0.81819,0.38781 -0.755565,0.86187 l 2.585009,19.58545 c 0.0625,0.474 0.505002,0.86175 0.983129,0.86175 H 18.51794 c 0.478127,0 0.920503,-0.38769 0.983066,-0.86175 z"
   id="path4"
   inkscape:connector-curvature="0" />
<g
   id="g12"
   transform="matrix(0.06250022,0,0,0.06250022,-4.090827,1.1224125e-5)"
   style="stroke-width:15.99994469">
	<path
   style="fill:#3f4963;stroke-width:255.99822998"
   d="m 424.638,142.78 h -31.7 c 0,-17.924 -14.53,-32.455 -32.454,-32.455 H 151.515 c -17.925,0 -32.454,14.531 -32.454,32.455 H 87.359 c -7.65,0 -13.91,6.26 -13.91,13.911 v 38.243 c 0,7.649 6.26,13.909 13.91,13.909 h 337.279 c 7.65,0 13.91,-6.26 13.91,-13.909 V 156.69 c 0,-7.651 -6.26,-13.91 -13.91,-13.91 z"
   id="path6"
   inkscape:connector-curvature="0" />
	<path
   style="fill:#3f4963;stroke-width:255.99822998"
   d="m 241.605,284.484 c -12.347,0 -22.39,-10.045 -22.39,-22.39 0,-4.417 3.58,-7.996 7.996,-7.996 4.416,0 7.996,3.579 7.996,7.996 0,3.528 2.869,6.397 6.397,6.397 3.528,0 6.397,-2.869 6.397,-6.397 0,-4.417 3.58,-7.996 7.996,-7.996 4.416,0 7.996,3.579 7.996,7.996 0.002,12.345 -10.041,22.39 -22.388,22.39 z"
   id="path8"
   inkscape:connector-curvature="0" />
	<path
   style="fill:#3f4963;stroke-width:255.99822998"
   d="m 270.392,284.484 c -12.347,0 -22.39,-10.045 -22.39,-22.39 0,-4.417 3.58,-7.996 7.996,-7.996 4.416,0 7.996,3.579 7.996,7.996 0,3.528 2.869,6.397 6.397,6.397 3.528,0 6.397,-2.869 6.397,-6.397 0,-4.417 3.58,-7.996 7.996,-7.996 4.416,0 7.996,3.579 7.996,7.996 0.003,12.345 -10.041,22.39 -22.388,22.39 z"
   id="path10"
   inkscape:connector-curvature="0" />
</g>
<path
   style="fill:#ff9596;stroke-width:1.00000012"
   d="m 17.328498,18.550141 h -1.936131 c -0.276001,0 -0.499752,-0.22369 -0.499752,-0.49975 0,-0.27607 0.223751,-0.49976 0.499752,-0.49976 h 1.936131 c 0.276001,0 0.499752,0.22369 0.499752,0.49976 6.3e-5,0.276 -0.223626,0.49975 -0.499752,0.49975 z"
   id="path14"
   inkscape:connector-curvature="0" />
<path
   style="fill:#3f4963;stroke-width:1.00000012"
   d="m 17.265436,16.357011 c -0.276001,0 -0.499752,-0.22369 -0.499752,-0.49976 0,-0.22343 -0.181813,-0.40512 -0.405127,-0.40512 -0.223313,0 -0.405126,0.18175 -0.405126,0.40512 0,0.27607 -0.223751,0.49976 -0.499752,0.49976 -0.276001,0 -0.499751,-0.22369 -0.499751,-0.49976 0,-0.77456 0.630189,-1.40469 1.404692,-1.40469 0.774565,0 1.404692,0.63013 1.404692,1.40469 -1.25e-4,0.27594 -0.223875,0.49976 -0.499876,0.49976 z"
   id="path16"
   inkscape:connector-curvature="0" />
<path
   style="fill:#ff9596;stroke-width:1.00000012"
   d="M 8.425967,18.550141 H 6.489835 c -0.276001,0 -0.499752,-0.22369 -0.499752,-0.49975 0,-0.27607 0.223751,-0.49976 0.499752,-0.49976 h 1.936132 c 0.276001,0 0.499752,0.22369 0.499752,0.49976 0,0.276 -0.223751,0.49975 -0.499752,0.49975 z"
   id="path18"
   inkscape:connector-curvature="0" />
<path
   style="fill:#3f4963;stroke-width:1.00000012"
   d="m 8.362842,16.357011 c -0.276001,0 -0.499752,-0.22369 -0.499752,-0.49976 0,-0.22343 -0.181813,-0.40512 -0.405126,-0.40512 -0.223439,0 -0.405127,0.18175 -0.405127,0.40512 0,0.27607 -0.223751,0.49976 -0.499752,0.49976 -0.276001,0 -0.499751,-0.22369 -0.499751,-0.49976 0,-0.77456 0.630189,-1.40469 1.404692,-1.40469 0.774503,0 1.404693,0.63013 1.404693,1.40469 -1.25e-4,0.27594 -0.223876,0.49976 -0.499877,0.49976 z"
   id="path20"
   inkscape:connector-curvature="0" />
<path
   style="fill:#866539;stroke-width:1.00000012"
   d="m 2.769697,19.976211 c -0.366501,0 -0.627127,0.29725 -0.579127,0.66062 l 0.922066,6.98615 c 0.048,0.36338 0.387126,0.66063 0.753628,0.66063 h 16.085744 c 0.366501,0 0.705627,-0.29725 0.753627,-0.66063 l 0.922066,-6.98615 c 0.048,-0.36337 -0.212626,-0.66062 -0.579127,-0.66062 z"
   id="path22"
   inkscape:connector-curvature="0" />
<circle
   style="fill:#ffffff;stroke-width:1.00000012"
   cx="11.908793"
   cy="24.130144"
   r="3.3901994"
   id="circle24" />
<path
   style="fill:#866539;stroke-width:1.00000012"
   d="m 12.358731,22.397281 c -0.248438,0 -0.449814,0.20143 -0.449814,0.44981 0,-0.24838 -0.201376,-0.44981 -0.449814,-0.44981 -0.382939,0 -1.016004,0.86631 -1.016004,1.89919 0,1.03288 0.449314,1.43269 1.016004,1.43269 0.248438,0 0.449814,-0.20137 0.449814,-0.44981 0,0.24844 0.201376,0.44981 0.449814,0.44981 0.566627,0 1.016003,-0.39981 1.016003,-1.43269 0,-1.03288 -0.633064,-1.89919 -1.016003,-1.89919 z"
   id="path26"
   inkscape:connector-curvature="0" />
<path
   d="m 15.455554,16.356941 c 0.276001,0 0.499752,-0.22369 0.499752,-0.49981 0,-0.22338 0.181813,-0.40513 0.405126,-0.40513 0.223439,0 0.405127,0.18188 0.405127,0.40513 0,0.27606 0.223688,0.49981 0.499752,0.49981 0.276063,0 0.499751,-0.22369 0.499751,-0.49981 0,-0.7745 -0.630189,-1.40469 -1.404692,-1.40469 -0.774503,0 -1.404692,0.63019 -1.404692,1.40469 6.2e-5,0.276 0.223813,0.49981 0.499876,0.49981 z m 6.993587,-7.9330298 h -1.531255 c -0.232688,-1.1555 -1.255442,-2.02838 -2.478384,-2.02838 h -0.565689 l 0.671002,-4.57901 C 18.671628,0.95101122 18.070689,0.14364122 17.20481,0.01664122 c -0.865065,-0.12576 -1.67263,0.47493 -1.799318,1.33974998 l -0.738503,5.03908 H 5.378894 c -1.223004,0 -2.245696,0.87294 -2.478384,2.02838 H 1.36913 C 0.61419,8.4238512 0,9.0381712 0,9.7930412 v 2.3901998 c 0,0.75488 0.61419,1.36907 1.36913,1.36907 h 0.188938 l 0.79269,6.00596 c -0.153875,0.0621 -0.292251,0.15718 -0.402001,0.28243 -0.203001,0.23157 -0.295501,0.54563 -0.253814,0.86151 l 0.922066,6.98615 c 0.0675,0.51125 0.459439,0.92913 0.946128,1.05513 l 0.258751,1.9605 c 0.09581,0.72676 0.745253,1.29601 1.478568,1.29601 H 18.51794 c 0.733128,0 1.382567,-0.56932 1.47863,-1.29601 l 0.258751,-1.96063 c 0.486502,-0.12612 0.878128,-0.544 0.945566,-1.055 l 0.922066,-6.98615 c 0.04162,-0.31588 -0.05088,-0.62994 -0.253814,-0.86151 -0.109688,-0.12506 -0.247938,-0.22025 -0.401626,-0.28225 l 0.792815,-6.00608 h 0.188938 c 0.754941,0 1.36913,-0.61419 1.36913,-1.36907 V 9.7931112 c -1.25e-4,-0.75494 -0.614314,-1.3692 -1.369255,-1.3692 z m -6.054771,-6.92252 c 0.04687,-0.32006 0.345251,-0.54262998 0.66569,-0.49556 0.320251,0.0469 0.542564,0.34556 0.495627,0.66569 l -0.692253,4.72401 H 15.677055 Z M 5.378894,7.3950412 H 18.43944 c 0.667815,0 1.236754,0.43081 1.444317,1.02881 H 3.934576 c 0.207626,-0.598 0.77644,-1.02881 1.444318,-1.02881 z M 3.866139,27.783801 c -0.115188,0 -0.243001,-0.11207 -0.258064,-0.22626 l -0.922066,-6.98615 c -0.0029,-0.0219 -0.0028,-0.0522 0.01444,-0.0717 0.01725,-0.0197 0.04719,-0.0238 0.06925,-0.0238 h 7.804153 c -1.489381,0.54582 -2.554884,1.97782 -2.554884,3.65389 0,1.6762 1.065566,3.1082 2.554884,3.65402 z m 8.042778,-6.5444 c 1.593818,0 2.890447,1.29669 2.890447,2.89038 0,1.59382 -1.296629,2.89051 -2.890447,2.89051 -1.593756,0 -2.890385,-1.29669 -2.890385,-2.89051 -6.3e-5,-1.59369 1.296567,-2.89038 2.890385,-2.89038 z m 7.096587,9.33378 c -0.0295,0.22356 -0.262001,0.42725 -0.487564,0.42725 H 5.300456 c -0.225688,0 -0.458064,-0.20369 -0.487502,-0.42725 l -0.23625,-1.78982 h 14.665051 z m 2.126508,-10.00172 -0.922066,6.98615 c -0.01506,0.11412 -0.142938,0.22625 -0.258063,0.22625 h -6.707774 c 1.489255,-0.54582 2.554884,-1.97782 2.554884,-3.65402 0,-1.67606 -1.065504,-3.10807 -2.554821,-3.65388 h 7.804152 c 0.02206,0 0.052,0.004 0.06925,0.0238 0.01719,0.0195 0.01731,0.0499 0.01444,0.0717 z m -0.661878,-1.09507 H 3.348262 L 2.566384,13.552431 H 21.25195 Z m 2.348571,-7.29302 c 0,0.20387 -0.165813,0.3695 -0.369564,0.3695 H 1.36913 c -0.203751,0 -0.369564,-0.16569 -0.369564,-0.3695 V 9.7931712 c 0,-0.20388 0.165813,-0.36963 0.369564,-0.36963 h 21.080011 c 0.203751,0 0.369564,0.16582 0.369564,0.36963 z m -11.809166,5.59689 c 0.342438,0 0.656127,-0.124 0.899628,-0.32906 0.243501,0.205 0.557127,0.32906 0.899628,0.32906 0.77169,0 1.39938,-0.62775 1.39938,-1.39938 0,-0.27606 -0.223688,-0.49975 -0.499752,-0.49975 -0.276063,0 -0.499752,0.22369 -0.499752,0.49975 0,0.2205 -0.179313,0.39981 -0.399814,0.39981 -0.2205,0 -0.399813,-0.17931 -0.399813,-0.39981 0,-0.27606 -0.223689,-0.49975 -0.499752,-0.49975 -0.276064,0 -0.499752,0.22369 -0.499752,0.49975 0,0.2205 -0.179313,0.39981 -0.399814,0.39981 -0.220501,0 -0.399814,-0.17931 -0.399814,-0.39981 0,-0.27606 -0.223688,-0.49975 -0.499752,-0.49975 -0.276063,0 -0.499751,0.22369 -0.499751,0.49975 -2.5e-4,0.77163 0.627502,1.39938 1.39913,1.39938 z m -4.456641,-1.42332 c 0.276063,0 0.499752,-0.22369 0.499752,-0.49981 0,-0.22338 0.181813,-0.40513 0.405126,-0.40513 0.223313,0 0.405127,0.18188 0.405127,0.40513 0,0.27606 0.223688,0.49981 0.499751,0.49981 0.276064,0 0.499752,-0.22369 0.499752,-0.49981 0,-0.7745 -0.63019,-1.40469 -1.404692,-1.40469 -0.774503,0 -1.404693,0.63019 -1.404693,1.40469 6.3e-5,0.276 0.223876,0.49981 0.499877,0.49981 z"
   id="path28"
   inkscape:connector-curvature="0"
   style="stroke-width:1.00000012" />
<g
   id="g30"
   transform="translate(-65.453,-479.998)">
</g>
<g
   id="g32"
   transform="translate(-65.453,-479.998)">
</g>
<g
   id="g34"
   transform="translate(-65.453,-479.998)">
</g>
<g
   id="g36"
   transform="translate(-65.453,-479.998)">
</g>
<g
   id="g38"
   transform="translate(-65.453,-479.998)">
</g>
<g
   id="g40"
   transform="translate(-65.453,-479.998)">
</g>
<g
   id="g42"
   transform="translate(-65.453,-479.998)">
</g>
<g
   id="g44"
   transform="translate(-65.453,-479.998)">
</g>
<g
   id="g46"
   transform="translate(-65.453,-479.998)">
</g>
<g
   id="g48"
   transform="translate(-65.453,-479.998)">
</g>
<g
   id="g50"
   transform="translate(-65.453,-479.998)">
</g>
<g
   id="g52"
   transform="translate(-65.453,-479.998)">
</g>
<g
   id="g54"
   transform="translate(-65.453,-479.998)">
</g>
<g
   id="g56"
   transform="translate(-65.453,-479.998)">
</g>
<g
   id="g58"
   transform="translate(-65.453,-479.998)">
</g>
</svg>