<?xml version="1.0" encoding="UTF-8" standalone="no"?>
<!-- Created with Inkscape (http://www.inkscape.org/) -->

<svg
   xmlns:dc="http://purl.org/dc/elements/1.1/"
   xmlns:cc="http://creativecommons.org/ns#"
   xmlns:rdf="http://www.w3.org/1999/02/22-rdf-syntax-ns#"
   xmlns:svg="http://www.w3.org/2000/svg"
   xmlns="http://www.w3.org/2000/svg"
   xmlns:sodipodi="http://sodipodi.sourceforge.net/DTD/sodipodi-0.dtd"
   xmlns:inkscape="http://www.inkscape.org/namespaces/inkscape"
   width="8.4666672mm"
   height="8.4666672mm"
   viewBox="0 0 8.4666672 8.4666672"
   version="1.1"
   id="svg8"
   inkscape:version="0.92.5 (0.92.5+68)"
   sodipodi:docname="china.svg">
  <defs
     id="defs2" />
  <sodipodi:namedview
     id="base"
     pagecolor="#ffffff"
     bordercolor="#666666"
     borderopacity="1.0"
     inkscape:pageopacity="0.0"
     inkscape:pageshadow="2"
     inkscape:zoom="1.8101934"
     inkscape:cx="47.265528"
     inkscape:cy="-15.688218"
     inkscape:document-units="mm"
     inkscape:current-layer="layer1"
     showgrid="false"
     inkscape:window-width="1366"
     inkscape:window-height="700"
     inkscape:window-x="267"
     inkscape:window-y="1080"
     inkscape:window-maximized="1"
     fit-margin-top="0"
     fit-margin-left="0"
     fit-margin-right="0"
     fit-margin-bottom="0" />
  <metadata
     id="metadata5">
    <rdf:RDF>
      <cc:Work
         rdf:about="">
        <dc:format>image/svg+xml</dc:format>
        <dc:type
           rdf:resource="http://purl.org/dc/dcmitype/StillImage" />
        <dc:title></dc:title>
      </cc:Work>
    </rdf:RDF>
  </metadata>
  <g
     inkscape:label="Layer 1"
     inkscape:groupmode="layer"
     id="layer1"
     transform="translate(-59.924359,-195.60456)">
    <g
       id="g1099"
       transform="matrix(0.06451613,0,0,0.06451613,68.40078,190.43083)"
       style="stroke-width:15.5"
       inkscape:export-xdpi="96"
       inkscape:export-ydpi="96">
      <path
         transform="scale(0.26458333)"
         inkscape:connector-curvature="0"
         id="path874"
         d="m -424.39904,551.01966 c 30.83929,-0.21493 81.30357,-0.21493 112.14286,0 30.83928,0.21494 5.60714,0.39079 -56.07143,0.39079 -61.67857,0 -86.91071,-0.17585 -56.07143,-0.39079 z"
         style="opacity:1;fill:#ffffff;fill-opacity:1;stroke:none;stroke-width:31;stroke-linejoin:miter;stroke-miterlimit:4;stroke-dasharray:none;stroke-dashoffset:0;stroke-opacity:0.98678415" />
      <path
         transform="scale(0.26458333)"
         inkscape:connector-curvature="0"
         id="path926"
         d="m -480.58324,539.1038 v -11.72452 h 111.96429 111.96428 v 11.72334 11.72333 l -111.96428,10e-4 -111.96429,10e-4 z"
         style="opacity:1;fill:#ffffff;fill-opacity:1;stroke:none;stroke-width:31;stroke-linejoin:miter;stroke-miterlimit:4;stroke-dasharray:none;stroke-dashoffset:0;stroke-opacity:0.98678415" />
      <path
         transform="scale(0.26458333)"
         inkscape:connector-curvature="0"
         id="path928"
         d="m -304.51181,418.78743 c 0,-69.39587 0.10364,-92.57486 0.41953,-93.82939 0.60299,-2.39469 3.10232,-4.82426 5.57231,-5.41681 3.70691,-0.88927 7.13876,0.65067 8.77715,3.93848 l 0.94529,1.89696 v 92.78702 92.78702 h -7.85714 -7.85714 z"
         style="opacity:1;fill:#ffffff;fill-opacity:1;stroke:none;stroke-width:31;stroke-linejoin:miter;stroke-miterlimit:4;stroke-dasharray:none;stroke-dashoffset:0;stroke-opacity:0.98678415" />
      <path
         transform="scale(0.26458333)"
         inkscape:connector-curvature="0"
         id="path930"
         d="m -272.36895,418.16369 v -92.78702 l 0.94529,-1.89696 c 2.36884,-4.75365 8.45426,-5.67289 12.25883,-1.85177 0.98536,0.98966 1.81086,2.2294 2.07362,3.11421 0.33905,1.1417 0.43654,22.09917 0.43654,93.83928 v 92.36928 h -7.85714 -7.85714 z"
         style="opacity:1;fill:#ffffff;fill-opacity:1;stroke:none;stroke-width:31;stroke-linejoin:miter;stroke-miterlimit:4;stroke-dasharray:none;stroke-dashoffset:0;stroke-opacity:0.98678415" />
      <path
         transform="scale(0.26458333)"
         inkscape:connector-curvature="0"
         id="path932"
         d="m -336.29753,439.165 v -71.78572 h 7.85715 7.85714 v 71.78572 71.78571 h -7.85714 -7.85715 z"
         style="opacity:1;fill:#ffffff;fill-opacity:1;stroke:none;stroke-width:31;stroke-linejoin:miter;stroke-miterlimit:4;stroke-dasharray:none;stroke-dashoffset:0;stroke-opacity:0.98678415" />
      <path
         transform="scale(0.26458333)"
         inkscape:connector-curvature="0"
         id="path934"
         d="m -368.44038,439.165 v -71.78572 h 7.85714 7.85714 v 71.78572 71.78571 h -7.85714 -7.85714 z"
         style="opacity:1;fill:#ffffff;fill-opacity:1;stroke:none;stroke-width:31;stroke-linejoin:miter;stroke-miterlimit:4;stroke-dasharray:none;stroke-dashoffset:0;stroke-opacity:0.98678415" />
      <path
         transform="scale(0.26458333)"
         inkscape:connector-curvature="0"
         id="path936"
         d="m -196.71705,622.72384 c -11.49445,-1.04322 -21.37941,-5.6866 -29.59464,-13.90182 -7.23483,-7.23483 -11.6643,-15.72377 -13.43385,-25.7455 -0.63252,-3.58224 -0.65913,-8.86596 -0.65913,-130.87581 0,-123.43865 0.0194,-127.17927 0.66678,-128.39286 1.59222,-2.98492 3.92565,-4.42657 7.19036,-4.44238 2.69274,-0.013 4.86607,1.10956 6.41272,3.3124 l 1.08728,1.54858 0.1891,127.55856 c 0.20895,140.94247 -0.01,128.73886 2.4168,134.98748 5.16822,13.30983 19.1087,21.77648 33.28835,20.21744 12.95168,-1.42402 23.67351,-10.44824 27.54818,-23.18642 l 0.81345,-2.67423 0.21082,-32.85714 c 0.23213,-36.17777 0.11038,-34.25668 2.49587,-39.382 5.5843,-11.99807 19.93095,-16.9546 32.1125,-11.09433 4.07745,1.96157 8.59152,6.3743 10.53425,10.29776 l 1.32631,2.67857 -9.03924,0.19946 c -9.62577,0.2124 -10.37722,0.33775 -13.6704,2.28034 -3.86482,2.27978 -7.02487,7.13647 -7.68163,11.80591 -0.20402,1.45047 -0.35521,13.44521 -0.36014,28.57143 -0.009,28.92866 -0.06,29.72372 -2.32198,36.48576 -3.17018,9.47726 -8.62084,17.05879 -16.61224,23.10658 -9.31905,7.05255 -21.42112,10.54581 -32.91952,9.50222 z"
         style="opacity:1;fill:#ffffff;fill-opacity:1;stroke:none;stroke-width:31;stroke-linejoin:miter;stroke-miterlimit:4;stroke-dasharray:none;stroke-dashoffset:0;stroke-opacity:0.98678415" />
      <path
         transform="scale(0.26458333)"
         inkscape:connector-curvature="0"
         id="path938"
         d="m -128.44038,539.165 v -11.78572 h 23.92857 23.928571 v 11.78572 11.78571 h -23.928571 -23.92857 z"
         style="opacity:1;fill:#ffffff;fill-opacity:1;stroke:none;stroke-width:31;stroke-linejoin:miter;stroke-miterlimit:4;stroke-dasharray:none;stroke-dashoffset:0;stroke-opacity:0.98678415" />
      <path
         transform="scale(0.26458333)"
         inkscape:connector-curvature="0"
         id="path940"
         d="m -208.44038,539.165 v -11.78572 h 15.89285 15.89286 v 11.78572 11.78571 h -15.89286 -15.89285 z"
         style="opacity:1;fill:#ffffff;fill-opacity:1;stroke:none;stroke-width:31;stroke-linejoin:miter;stroke-miterlimit:4;stroke-dasharray:none;stroke-dashoffset:0;stroke-opacity:0.98678415" />
      <path
         transform="scale(0.26458333)"
         inkscape:connector-curvature="0"
         id="path942"
         d="m -144.51181,628.10269 v -10.70516 l 2.24112,-2.77698 c 4.28193,-5.30574 8.39038,-12.97701 10.62052,-19.83055 l 1.13309,-3.48215 h 24.96692 24.966921 l -0.0036,10.26786 c -0.005,14.80596 -0.664132,24.17786 -2.386282,33.92857 l -0.583353,3.30357 h -30.477686 -30.47768 z m 48.214285,-13.04484 v -8.03571 h -16.249995 -16.25 v 8.03571 8.03572 h 16.25 16.249995 z"
         style="opacity:1;fill:#ffffff;fill-opacity:1;stroke:none;stroke-width:31;stroke-linejoin:miter;stroke-miterlimit:4;stroke-dasharray:none;stroke-dashoffset:0;stroke-opacity:0.98678415" />
      <path
         transform="scale(0.26458333)"
         inkscape:connector-curvature="0"
         id="path944"
         d="m -256.29753,615.05785 v -23.75 h 0.85077 c 0.75726,0 0.95777,0.34346 1.82435,3.125 4.37203,14.03334 14.53483,27.13501 27.14631,34.99648 6.52749,4.06896 13.59187,6.89082 21.20505,8.47034 l 4.1521,0.86144 -27.58929,0.0234 -27.58929,0.0234 z"
         style="opacity:1;fill:#ffffff;fill-opacity:1;stroke:none;stroke-width:31;stroke-linejoin:miter;stroke-miterlimit:4;stroke-dasharray:none;stroke-dashoffset:0;stroke-opacity:0.98678415" />
      <path
         transform="scale(0.26458333)"
         inkscape:connector-curvature="0"
         id="path948"
         d="m -368.44038,615.05785 v -23.75 h 31.78571 31.78572 v 23.75 23.75 h -31.78572 -31.78571 z m 47.85714,0 v -8.03571 h -16.07143 -16.07143 v 8.03571 8.03572 h 16.07143 16.07143 z"
         style="opacity:1;fill:#ffffff;fill-opacity:1;stroke:none;stroke-width:31;stroke-linejoin:miter;stroke-miterlimit:4;stroke-dasharray:none;stroke-dashoffset:0;stroke-opacity:0.98678415" />
      <path
         transform="scale(0.26458333)"
         inkscape:connector-curvature="0"
         id="path950"
         d="m -478.37826,634.07571 c -1.67692,-10.43761 -2.19654,-18.31849 -2.20174,-33.39286 l -0.003,-9.375 h 31.96429 31.96428 v 23.75 23.75 h -30.48166 -30.48167 z m 46.00931,-19.01786 v -8.03571 h -16.25 -16.25 v 8.03571 8.03572 h 16.25 16.25 z"
         style="opacity:1;fill:#ffffff;fill-opacity:1;stroke:none;stroke-width:31;stroke-linejoin:miter;stroke-miterlimit:4;stroke-dasharray:none;stroke-dashoffset:0;stroke-opacity:0.98678415" />
      <path
         transform="scale(0.26458333)"
         inkscape:connector-curvature="0"
         id="path952"
         d="m -380.2261,749.37977 c -17.75805,-6.07362 -33.04446,-14.60643 -47.3798,-26.44721 -4.59663,-3.79675 -13.88372,-13.00637 -17.6649,-17.51756 -5.8196,-6.94315 -11.19214,-14.57929 -15.45335,-21.96429 l -2.36987,-4.10714 91.25539,-0.09 c 50.19047,-0.0495 132.32261,-0.0495 182.51588,0 l 91.260475,0.09 -2.263575,3.92857 c -10.82928,18.79472 -25.61142,34.95147 -43.3888,47.42357 -11.10379,7.79011 -24.27696,14.38507 -37.53029,18.78903 l -4.4117,1.46597 -95.05259,-0.022 -95.05258,-0.022 z"
         style="opacity:1;fill:#ffffff;fill-opacity:1;stroke:none;stroke-width:31;stroke-linejoin:miter;stroke-miterlimit:4;stroke-dasharray:none;stroke-dashoffset:0;stroke-opacity:0.98678415" />
      <path
         transform="scale(0.26458333)"
         inkscape:connector-curvature="0"
         id="path954"
         d="m -368.44038,775.23643 v -7.85715 h 87.85714 87.85714 v 7.85715 7.85714 h -87.85714 -87.85714 z"
         style="opacity:1;fill:#ffffff;fill-opacity:1;stroke:none;stroke-width:31;stroke-linejoin:miter;stroke-miterlimit:4;stroke-dasharray:none;stroke-dashoffset:0;stroke-opacity:0.98678415" />
      <path
         transform="scale(0.26458333)"
         inkscape:connector-curvature="0"
         id="path956"
         d="m -208.41006,343.18403 v -7.85714 h 95.89285 95.89286 v 7.85714 7.85714 h -95.89286 -95.89285 z"
         style="opacity:1;fill:#ffffff;fill-opacity:1;stroke:none;stroke-width:31;stroke-linejoin:miter;stroke-miterlimit:4;stroke-dasharray:none;stroke-dashoffset:0;stroke-opacity:0.98678415" />
      <path
         transform="scale(0.26458333)"
         inkscape:connector-curvature="0"
         id="path958"
         d="m -208.41006,374.96975 v -7.85715 h 87.85714 87.857141 v 7.85715 7.85714 h -87.857141 -87.85714 z"
         style="opacity:1;fill:#ffffff;fill-opacity:1;stroke:none;stroke-width:31;stroke-linejoin:miter;stroke-miterlimit:4;stroke-dasharray:none;stroke-dashoffset:0;stroke-opacity:0.98678415" />
      <path
         transform="scale(0.26458333)"
         inkscape:connector-curvature="0"
         id="path960"
         d="m -384.48149,343.18403 v -7.85714 h 31.96428 31.96429 v 7.85714 7.85714 h -31.96429 -31.96428 z"
         style="opacity:1;fill:#ffffff;fill-opacity:1;stroke:none;stroke-width:31;stroke-linejoin:miter;stroke-miterlimit:4;stroke-dasharray:none;stroke-dashoffset:0;stroke-opacity:0.98678415" />
      <path
         transform="scale(0.26458333)"
         inkscape:connector-curvature="0"
         id="path962"
         d="m -400.55292,374.96975 v -7.85715 h 7.85714 7.85714 v 7.85715 7.85714 h -7.85714 -7.85714 z"
         style="opacity:1;fill:#ffffff;fill-opacity:1;stroke:none;stroke-width:31;stroke-linejoin:miter;stroke-miterlimit:4;stroke-dasharray:none;stroke-dashoffset:0;stroke-opacity:0.98678415" />
      <rect
         y="87.861595"
         x="-104.36875"
         height="13.497929"
         width="95.7509"
         id="rect992"
         style="opacity:1;fill:#ffffff;fill-opacity:1;stroke:none;stroke-width:8.20208263;stroke-linejoin:miter;stroke-miterlimit:4;stroke-dasharray:none;stroke-dashoffset:0;stroke-opacity:0.98678415" />
      <rect
         y="86.124344"
         x="-10.690781"
         height="6.7685132"
         width="6.3062596"
         id="rect994"
         style="opacity:1;fill:#ffffff;fill-opacity:1;stroke:none;stroke-width:8.20208263;stroke-linejoin:miter;stroke-miterlimit:4;stroke-dasharray:none;stroke-dashoffset:0;stroke-opacity:0.98678415" />
      <rect
         y="86.124344"
         x="-10.690781"
         height="9.6217012"
         width="8.9535284"
         id="rect996"
         style="opacity:1;fill:#ffffff;fill-opacity:1;stroke:none;stroke-width:8.20208263;stroke-linejoin:miter;stroke-miterlimit:4;stroke-dasharray:none;stroke-dashoffset:0;stroke-opacity:0.98678415" />
      <rect
         y="83.451645"
         x="-81.784477"
         height="11.759859"
         width="23.786989"
         id="rect998"
         style="opacity:1;fill:#ffffff;fill-opacity:1;stroke:none;stroke-width:8.20208263;stroke-linejoin:miter;stroke-miterlimit:4;stroke-dasharray:none;stroke-dashoffset:0;stroke-opacity:0.98678415" />
      <rect
         y="97.202431"
         x="-97.483177"
         height="86.742554"
         width="40.421139"
         id="rect1000"
         style="opacity:1;fill:#ffffff;fill-opacity:1;stroke:none;stroke-width:8.20208263;stroke-linejoin:miter;stroke-miterlimit:4;stroke-dasharray:none;stroke-dashoffset:0;stroke-opacity:0.98678415" />
      <rect
         y="139.45952"
         x="-127.15119"
         height="34.997398"
         width="38.284073"
         id="rect1002"
         style="opacity:1;fill:#ffffff;fill-opacity:1;stroke:none;stroke-width:8.20208263;stroke-linejoin:miter;stroke-miterlimit:4;stroke-dasharray:none;stroke-dashoffset:0;stroke-opacity:0.98678415" />
      <rect
         y="138.37553"
         x="-60.269276"
         height="32.833988"
         width="39.903923"
         id="rect1004"
         style="opacity:1;fill:#ffffff;fill-opacity:1;stroke:none;stroke-width:8.20208263;stroke-linejoin:miter;stroke-miterlimit:4;stroke-dasharray:none;stroke-dashoffset:0;stroke-opacity:0.98678415" />
      <rect
         y="166.7061"
         x="-63.877415"
         height="15.768902"
         width="40.224064"
         id="rect1006"
         style="opacity:1;fill:#ffffff;fill-opacity:1;stroke:none;stroke-width:8.20208263;stroke-linejoin:miter;stroke-miterlimit:4;stroke-dasharray:none;stroke-dashoffset:0;stroke-opacity:0.98678415" />
      <rect
         y="131.30469"
         x="-43.845234"
         height="9.4966516"
         width="14.59933"
         id="rect1008"
         style="opacity:1;fill:#ffffff;fill-opacity:1;stroke:none;stroke-width:8.20208263;stroke-linejoin:miter;stroke-miterlimit:4;stroke-dasharray:none;stroke-dashoffset:0;stroke-opacity:0.98678415" />
      <rect
         y="129.69829"
         x="-39.167786"
         height="4.0159969"
         width="7.1343002"
         id="rect1010"
         style="opacity:1;fill:#ffffff;fill-opacity:1;stroke:none;stroke-width:8.20208263;stroke-linejoin:miter;stroke-miterlimit:4;stroke-dasharray:none;stroke-dashoffset:0;stroke-opacity:0.98678415" />
      <rect
         y="198.27339"
         x="-100.60149"
         height="4.0955791"
         width="53.883633"
         id="rect1012"
         style="opacity:1;fill:#ffffff;fill-opacity:1;stroke:none;stroke-width:8.20208263;stroke-linejoin:miter;stroke-miterlimit:4;stroke-dasharray:none;stroke-dashoffset:0;stroke-opacity:0.98678415" />
      <rect
         y="200.89955"
         x="-98.651787"
         height="6.2933044"
         width="47.700596"
         id="rect1014"
         style="opacity:1;fill:#ffffff;fill-opacity:1;stroke:none;stroke-width:8.20208263;stroke-linejoin:miter;stroke-miterlimit:4;stroke-dasharray:none;stroke-dashoffset:0;stroke-opacity:0.98678415" />
      <rect
         y="196.03894"
         x="-49.378044"
         height="4.0090427"
         width="5.278573"
         id="rect1016"
         style="opacity:1;fill:#ffffff;fill-opacity:1;stroke:none;stroke-width:8.20208263;stroke-linejoin:miter;stroke-miterlimit:4;stroke-dasharray:none;stroke-dashoffset:0;stroke-opacity:0.98678415" />
      <rect
         y="193.63351"
         x="-44.767643"
         height="4.07586"
         width="4.07586"
         id="rect1018"
         style="opacity:1;fill:#ffffff;fill-opacity:1;stroke:none;stroke-width:8.20208263;stroke-linejoin:miter;stroke-miterlimit:4;stroke-dasharray:none;stroke-dashoffset:0;stroke-opacity:0.98678415" />
      <rect
         y="191.42853"
         x="-41.694046"
         height="4.2763124"
         width="4.7440343"
         id="rect1020"
         style="opacity:1;fill:#ffffff;fill-opacity:1;stroke:none;stroke-width:8.20208263;stroke-linejoin:miter;stroke-miterlimit:4;stroke-dasharray:none;stroke-dashoffset:0;stroke-opacity:0.98678415" />
      <rect
         y="188.88947"
         x="-37.952274"
         height="4.6103992"
         width="6.0135641"
         id="rect1022"
         style="opacity:1;fill:#ffffff;fill-opacity:1;stroke:none;stroke-width:8.20208263;stroke-linejoin:miter;stroke-miterlimit:4;stroke-dasharray:none;stroke-dashoffset:0;stroke-opacity:0.98678415" />
      <rect
         y="180.20322"
         x="-34.878674"
         height="9.6217022"
         width="5.4122081"
         id="rect1024"
         style="opacity:1;fill:#ffffff;fill-opacity:1;stroke:none;stroke-width:8.20208263;stroke-linejoin:miter;stroke-miterlimit:4;stroke-dasharray:none;stroke-dashoffset:0;stroke-opacity:0.98678415" />
      <rect
         y="178.46596"
         x="-33.208237"
         height="8.2185383"
         width="6.481286"
         id="rect1026"
         style="opacity:1;fill:#ffffff;fill-opacity:1;stroke:none;stroke-width:8.20208263;stroke-linejoin:miter;stroke-miterlimit:4;stroke-dasharray:none;stroke-dashoffset:0;stroke-opacity:0.98678415" />
      <rect
         y="173.32619"
         x="-125.28005"
         height="5.1782737"
         width="2.5795352"
         id="rect1028"
         style="opacity:1;fill:#ffffff;fill-opacity:1;stroke:none;stroke-width:8.20208263;stroke-linejoin:miter;stroke-miterlimit:4;stroke-dasharray:none;stroke-dashoffset:0;stroke-opacity:0.98678415" />
      <rect
         y="177.65401"
         x="-123.73995"
         height="7.2287946"
         width="5.6696429"
         id="rect1030"
         style="opacity:1;fill:#ffffff;fill-opacity:1;stroke:none;stroke-width:8.20208263;stroke-linejoin:miter;stroke-miterlimit:4;stroke-dasharray:none;stroke-dashoffset:0;stroke-opacity:0.98678415" />
      <rect
         y="184.31584"
         x="-119.53497"
         height="5.8113837"
         width="4.7247024"
         id="rect1032"
         style="opacity:1;fill:#ffffff;fill-opacity:1;stroke:none;stroke-width:8.20208263;stroke-linejoin:miter;stroke-miterlimit:4;stroke-dasharray:none;stroke-dashoffset:0;stroke-opacity:0.98678415" />
      <rect
         y="188.94606"
         x="-115.23549"
         height="3.3072915"
         width="3.7325146"
         id="rect1034"
         style="opacity:1;fill:#ffffff;fill-opacity:1;stroke:none;stroke-width:8.20208263;stroke-linejoin:miter;stroke-miterlimit:4;stroke-dasharray:none;stroke-dashoffset:0;stroke-opacity:0.98678415" />
      <rect
         y="191.54463"
         x="-112.44791"
         height="3.6380208"
         width="4.9609375"
         id="rect1036"
         style="opacity:1;fill:#ffffff;fill-opacity:1;stroke:none;stroke-width:8.20208263;stroke-linejoin:miter;stroke-miterlimit:4;stroke-dasharray:none;stroke-dashoffset:0;stroke-opacity:0.98678415" />
      <rect
         y="194.37946"
         x="-108.38467"
         height="2.6458333"
         width="4.7247024"
         id="rect1038"
         style="opacity:1;fill:#ffffff;fill-opacity:1;stroke:none;stroke-width:8.20208263;stroke-linejoin:miter;stroke-miterlimit:4;stroke-dasharray:none;stroke-dashoffset:0;stroke-opacity:0.98678415" />
      <rect
         y="195.3244"
         x="-104.46317"
         height="4.3939734"
         width="5.7641373"
         id="rect1040"
         style="opacity:1;fill:#ffffff;fill-opacity:1;stroke:none;stroke-width:8.20208263;stroke-linejoin:miter;stroke-miterlimit:4;stroke-dasharray:none;stroke-dashoffset:0;stroke-opacity:0.98678415" />
      <g
         transform="matrix(2.1166667,0,0,2.1166667,-133.50119,78.076189)"
         id="g850"
         style="stroke-width:15.5">
        <g
           id="g828"
           style="stroke-width:15.5">
          <path
             style="fill:#f0bc5e;stroke-width:15.5"
             inkscape:connector-curvature="0"
             d="m 54,32 v 4 H 45.93 45.92 C 45.98,35.68 46,35.34 46,35 v -3 z"
             id="path826" />
        </g>
        <g
           id="g832"
           style="stroke-width:15.5">
          <path
             style="fill:#f0bc5e;stroke-width:15.5"
             inkscape:connector-curvature="0"
             d="m 42,32 v 3 c 0,0.83 -0.34,1.58 -0.88,2.12 C 40.58,37.66 39.83,38 39,38 37.34,38 36,36.66 36,35 v -3 z"
             id="path830" />
        </g>
        <g
           id="g836"
           style="stroke-width:15.5">
          <path
             style="fill:#f0bc5e;stroke-width:15.5"
             inkscape:connector-curvature="0"
             d="m 32,35 c 0,0.34 0.02,0.67 0.08,1 H 32.07 30 v 8 h 10 v -2.07 -0.01 c 1.56,-0.21 2.95,-0.95 4,-2.02 V 44 h 9.45 C 53.12,45.39 52.63,46.73 52,48 H 4 C 3.37,46.73 2.88,45.39 2.55,44 H 12 V 36 H 2 v -4 h 30 z m -6,9 V 36 H 16 v 8 z"
             id="path834" />
        </g>
        <g
           id="g848"
           style="stroke-width:15.5">
          <path
             inkscape:connector-curvature="0"
             d="m 47,39 h 4 v 2 h -4 z"
             id="path838"
             style="stroke-width:15.5" />
          <path
             inkscape:connector-curvature="0"
             d="m 19,39 h 4 v 2 h -4 z"
             id="path840"
             style="stroke-width:15.5" />
          <path
             inkscape:connector-curvature="0"
             d="M 15,45 H 27 V 35 H 15 Z m 2,-8 h 8 v 6 h -8 z"
             id="path842"
             style="stroke-width:15.5" />
          <path
             inkscape:connector-curvature="0"
             d="m 5,39 h 4 v 2 H 5 Z"
             id="path844"
             style="stroke-width:15.5" />
          <path
             inkscape:connector-curvature="0"
             d="M 61,3 H 36.816 C 36.402,1.839 35.302,1 34,1 33.229,1 32.532,1.301 32,1.78 31.468,1.301 30.771,1 30,1 29.229,1 28.532,1.301 28,1.78 27.468,1.301 26.771,1 26,1 24.698,1 23.598,1.839 23.184,3 H 15 c -1.103,0 -2,0.897 -2,2 v 2 c -1.103,0 -2,0.897 -2,2 v 2 c 0,1.103 0.897,2 2,2 h 2 V 27 H 3 C 1.897,27 1,27.897 1,29 V 39.439 C 1,48.2 6.724,56.012 15,58.721 V 61 c 0,1.103 0.897,2 2,2 h 22 c 1.103,0 2,-0.897 2,-2 V 58.721 C 49.276,56.012 55,48.2 55,39.439 V 29 c 0,-1.103 -0.897,-2 -2,-2 H 50.899 C 50.434,24.721 48.415,23 46,23 c -2.414,0 -4.434,1.721 -4.899,4 H 37 V 13 h 22 c 1.103,0 2,-0.897 2,-2 V 9 c 1.103,0 2,-0.897 2,-2 V 5 C 63,3.897 62.103,3 61,3 Z M 39,43 h -8 v -6 h 0.263 c 0.892,3.445 4.018,6 7.737,6 z M 30,3 c 0.552,0 1,0.449 1,1 V 27 H 29 V 4 c 0,-0.551 0.448,-1 1,-1 z m -4,0 c 0.552,0 1,0.449 1,1 V 27 H 25 V 4 C 25,3.449 25.448,3 26,3 Z M 23,9 V 27 H 21 V 9 Z M 15,5 h 8 v 2 h -8 z m -2,6 V 9 h 2 v 2 z m 4,-2 h 2 V 27 H 17 Z M 3,39.439 V 37 h 8 v 6 H 3.368 C 3.135,41.841 3,40.652 3,39.439 Z M 39,61 17,61.002 V 59 h 22 z m 0.841,-4 H 16.159 C 10.249,55.269 5.711,50.671 3.884,45 H 13 V 35 H 3 v -6 h 28 v 6 h -2 v 10 h 12 v -2.263 c 0.71,-0.184 1.381,-0.46 2,-0.819 V 45 h 9.115 C 50.289,50.671 45.751,55.269 39.841,57 Z M 46.737,37 H 53 v 2.439 C 53,40.652 52.865,41.84 52.632,43 H 45 V 40.274 C 45.816,39.346 46.418,38.231 46.737,37 Z M 53,29 v 6 h -6 v -6 z m -10,6 v -7 c 0,-1.654 1.346,-3 3,-3 1.304,0 2.416,0.836 2.829,2 H 47 c -1.103,0 -2,0.897 -2,2 v 6 c 0,3.309 -2.691,6 -6,6 -3.309,0 -6,-2.691 -6,-6 V 4 c 0,-0.551 0.448,-1 1,-1 0.552,0 1,0.449 1,1 v 31 c 0,2.206 1.794,4 4,4 2.206,0 4,-1.794 4,-4 z m -2,-6 v 6 c 0,1.103 -0.897,2 -2,2 -1.103,0 -2,-0.897 -2,-2 V 29 Z M 59,11 H 37 V 9 H 59 Z M 61,7 H 37 V 5 h 24 z"
             id="path846"
             style="stroke-width:15.5" />
        </g>
      </g>
    </g>
  </g>
</svg>
