<?xml version="1.0" encoding="UTF-8" standalone="no"?>
<!-- Generator: Adobe Illustrator 19.0.0, SVG Export Plug-In . SVG Version: 6.00 Build 0)  -->

<svg
   xmlns:dc="http://purl.org/dc/elements/1.1/"
   xmlns:cc="http://creativecommons.org/ns#"
   xmlns:rdf="http://www.w3.org/1999/02/22-rdf-syntax-ns#"
   xmlns:svg="http://www.w3.org/2000/svg"
   xmlns="http://www.w3.org/2000/svg"
   xmlns:sodipodi="http://sodipodi.sourceforge.net/DTD/sodipodi-0.dtd"
   xmlns:inkscape="http://www.inkscape.org/namespaces/inkscape"
   version="1.1"
   id="Capa_1"
   x="0px"
   y="0px"
   viewBox="0 0 32.000001 18.97063"
   xml:space="preserve"
   sodipodi:docname="sushi.svg"
   width="32"
   height="18.970629"
   inkscape:version="0.92.5 (0.92.5+68)"><metadata
   id="metadata65"><rdf:RDF><cc:Work
       rdf:about=""><dc:format>image/svg+xml</dc:format><dc:type
         rdf:resource="http://purl.org/dc/dcmitype/StillImage" /><dc:title></dc:title></cc:Work></rdf:RDF></metadata><defs
   id="defs63" /><sodipodi:namedview
   pagecolor="#ffffff"
   bordercolor="#666666"
   borderopacity="1"
   objecttolerance="10"
   gridtolerance="10"
   guidetolerance="10"
   inkscape:pageopacity="0"
   inkscape:pageshadow="2"
   inkscape:window-width="1920"
   inkscape:window-height="1052"
   id="namedview61"
   showgrid="false"
   fit-margin-top="0"
   fit-margin-left="0"
   fit-margin-right="0"
   fit-margin-bottom="0"
   inkscape:zoom="7.3749859"
   inkscape:cx="85.353747"
   inkscape:cy="-32.463442"
   inkscape:window-x="0"
   inkscape:window-y="0"
   inkscape:window-maximized="1"
   inkscape:current-layer="Capa_1" />











<g
   id="g886"
   transform="matrix(0.06250001,0,0,0.06250001,0,-6.514751)"
   style="stroke-width:15.99999809"><path
     id="path2"
     d="m 16.978,288.446 c 0,-90.519 99.801,-111.818 196.18,-111.818 96.379,0 196.18,21.299 196.18,111.818 0,90.519 -99.8,111.818 -196.18,111.818 -96.38,0 -196.18,-21.299 -196.18,-111.818 z"
     style="fill:#eeeced;stroke-width:255.99993896"
     inkscape:connector-curvature="0" /><path
     id="path4"
     d="m 213.158,176.629 c -87.923,0 -178.679,17.736 -193.93,89.571 5.814,0.969 12.353,1.437 19.832,1.437 7.056,0 15.197,-0.412 24.867,-1.258 13.573,-1.177 28.736,-3.078 44.788,-5.091 9.951,-1.248 20.241,-2.539 30.768,-3.735 20.405,-2.327 47.22,-4.998 73.675,-4.998 26.455,0 53.269,2.671 73.686,5 10.515,1.195 20.805,2.486 30.757,3.734 16.052,2.013 31.215,3.915 44.766,5.089 0.012,0.001 0.024,0.002 0.036,0.003 2.066,0.181 3.818,1.604 4.378,3.601 0.194,0.692 0.396,1.384 0.606,2.074 6.423,21.184 19.485,39.245 36.239,50.809 3.708,-10.177 5.713,-21.603 5.713,-34.419 0,-90.518 -99.802,-111.817 -196.181,-111.817 z"
     style="fill:#d4d2d3;stroke-width:255.99993896"
     inkscape:connector-curvature="0" /><g
     id="g10"
     style="stroke-width:15.99999809">
	<path
   id="path6"
   d="m 503.787,226.451 c -6.748,-14.757 -21.833,-27.257 -41.353,-32.29 -22.007,-5.674 -43.665,-0.315 -56.478,12.245 -12.01,13.33 -16.453,35.196 -9.858,56.943 5.849,19.291 18.972,33.837 34,39.958 3.477,1.417 7.493,0.199 9.598,-2.91 9.097,-13.437 11.932,-32.821 6.083,-52.112 -0.576,-1.901 -1.227,-3.752 -1.94,-5.557 1.833,0.636 3.711,1.208 5.634,1.704 19.52,5.033 38.767,1.385 51.81,-8.269 3.018,-2.234 4.065,-6.297 2.504,-9.712 z"
   style="fill:#fb8d4b;stroke-width:15.99999809"
   inkscape:connector-curvature="0" />
	<path
   id="path8"
   d="M 61.326,139.729 C 21.59,160.904 7.494,191.574 7.494,222.554 c 0,15.125 21.426,16.772 53.842,13.937 L 85.367,169.74 Z"
   style="fill:#fb8d4b;stroke-width:15.99999809"
   inkscape:connector-curvature="0" />
</g><path
     id="path12"
     d="m 364.991,139.729 c 0.004,0.009 0.013,0.03 0.021,0.047 l -0.031,-0.057 -28.025,30.021 28.025,66.751 c 32.417,2.835 53.842,1.188 53.842,-13.937 0,-30.98 -14.098,-61.649 -53.832,-82.825 z"
     style="fill:#e86d24;stroke-width:255.99993896"
     inkscape:connector-curvature="0" /><path
     id="path14"
     d="m 364.991,139.729 c -0.01,-0.01 -0.01,-0.01 -0.01,-0.01 -20.995,-11.201 -49.14,-19.757 -86.149,-24.311 l 0.01,0.01 -25.748,45.236 37.14,67.091 c 27.665,3.145 53.562,6.909 74.748,8.745 19.836,-52.384 0.408,-95.853 0.009,-96.761 z"
     style="fill:#fb8d4b;stroke-width:255.99993896"
     inkscape:connector-curvature="0" /><path
     id="path16"
     d="m 278.842,115.419 -0.01,-0.01 c -19.378,-2.386 -41.193,-3.674 -65.673,-3.674 l -39.935,64.895 39.935,45.925 c 25.718,0 52.125,2.346 77.074,5.191 25.168,-56.718 -11.391,-112.327 -11.391,-112.327 z"
     style="fill:#e86d24;stroke-width:255.99993896"
     inkscape:connector-curvature="0" /><path
     id="path18"
     d="m 147.485,115.409 -0.01,0.01 -62.108,54.321 50.717,58.005 c 24.95,-2.845 51.356,-5.191 77.074,-5.191 v -110.82 c -24.48,0.001 -46.294,1.289 -65.673,3.675 z"
     style="fill:#fb8d4b;stroke-width:255.99993896"
     inkscape:connector-curvature="0" /><path
     id="path20"
     d="m 147.475,115.419 c 0,0 -36.56,55.609 -11.391,112.327 -27.665,3.145 -53.562,6.909 -74.748,8.745 -19.837,-52.384 -0.409,-95.853 -0.01,-96.762 0.01,-0.01 0.01,-0.01 0.01,-0.01 20.995,-11.201 49.14,-19.757 86.149,-24.311 z"
     style="fill:#e86d24;stroke-width:255.99993896"
     inkscape:connector-curvature="0" /><path
     id="path22"
     d="m 150.477,301.149 v -12.703 c 0,-4.142 -3.358,-7.5 -7.5,-7.5 -4.142,0 -7.5,3.358 -7.5,7.5 v 12.703 c 0,4.142 3.358,7.5 7.5,7.5 4.142,0 7.5,-3.358 7.5,-7.5 z"
     inkscape:connector-curvature="0"
     style="stroke-width:15.99999809" /><path
     id="path24"
     d="m 290.853,301.149 v -12.703 c 0,-4.142 -3.358,-7.5 -7.5,-7.5 -4.142,0 -7.5,3.358 -7.5,7.5 v 12.703 c 0,4.142 3.358,7.5 7.5,7.5 4.142,0 7.5,-3.358 7.5,-7.5 z"
     inkscape:connector-curvature="0"
     style="stroke-width:15.99999809" /><path
     id="path26"
     d="m 213.164,318.037 c 10.459,0 20.275,-4.367 26.932,-11.98 2.726,-3.119 2.408,-7.857 -0.71,-10.583 -3.118,-2.726 -7.857,-2.408 -10.583,0.71 -3.807,4.355 -9.507,6.853 -15.638,6.853 -6.131,0 -11.831,-2.498 -15.638,-6.853 -2.726,-3.119 -7.464,-3.437 -10.583,-0.711 -3.119,2.727 -3.437,7.464 -0.71,10.583 6.655,7.614 16.471,11.981 26.93,11.981 z"
     inkscape:connector-curvature="0"
     style="stroke-width:15.99999809" /><path
     id="path28"
     d="m 19.14,243.219 c -6.406,13.408 -9.656,28.567 -9.656,45.227 0,34.539 13.71,62.111 40.751,81.953 3.339,2.45 8.033,1.73 10.484,-1.61 2.45,-3.34 1.729,-8.033 -1.61,-10.484 -23.3,-17.095 -34.626,-39.947 -34.626,-69.859 0,-16.352 3.555,-30.919 10.575,-43.367 5.736,0.163 12.399,-0.036 20.337,-0.596 27.287,-1.927 54.376,-6.19 81.544,-9.285 20.993,-2.395 48.63,-5.143 76.224,-5.143 25.458,0 50.951,2.26 76.228,5.144 24.985,2.851 49.889,6.592 74.949,8.765 7.052,0.614 14.137,1.106 21.219,1.158 0.074,2.528 0.279,5.078 0.614,7.639 0.005,0.04 0.011,0.08 0.017,0.12 1.809,13.488 7.19,26.836 15.587,37.582 0.017,0.021 0.032,0.044 0.049,0.066 -0.67,37.352 -19.499,63.839 -57.505,80.932 -31.432,14.136 -75.559,21.305 -131.155,21.305 -53.934,0 -97.117,-6.756 -128.35,-20.081 -3.811,-1.625 -8.216,0.145 -9.842,3.956 -1.625,3.81 0.146,8.216 3.955,9.841 33.104,14.123 78.268,21.284 134.236,21.284 57.731,0 103.928,-7.612 137.308,-22.625 38.735,-17.42 60.667,-44.689 65.393,-81.183 3.599,2.534 7.412,4.669 11.408,6.297 6.527,2.659 14.571,0.356 18.638,-5.651 9.508,-14.042 12.656,-32.831 8.847,-51.41 18.721,3.023 37.363,-0.912 50.992,-11.001 5.838,-4.322 7.883,-12.253 4.862,-18.859 -7.952,-17.388 -25.261,-31.008 -46.301,-36.433 -15.294,-3.943 -30.731,-3.167 -43.859,1.766 -8.478,-23.013 -25.89,-41.668 -51.886,-55.532 -0.017,-0.009 -0.032,-0.022 -0.05,-0.032 -22.982,-12.261 -52.846,-20.718 -88.764,-25.137 -20.1,-2.475 -42.5,-3.73 -66.589,-3.73 -24.082,0 -46.483,1.255 -66.589,3.73 -35.918,4.418 -65.782,12.875 -88.764,25.138 -0.019,0.01 -0.037,0.024 -0.056,0.035 C 10.022,158.597 0,195.813 0,222.554 c 0,5.709 2.125,10.674 6.145,14.358 3.136,2.875 7.351,4.957 12.995,6.307 z M 220.664,119.277 c 19.2,0.217 37.193,1.272 53.628,3.146 5.649,9.987 22.849,44.48 15.354,82.438 -0.971,4.918 -2.337,9.755 -4.077,14.456 -0.042,0.115 -0.082,0.229 -0.125,0.344 -18.97,-2.091 -38.007,-3.746 -57.087,-4.352 -2.563,-0.082 -5.128,-0.15 -7.693,-0.192 z m 138.414,25.828 c 4.723,12.202 6.783,25.381 7.222,38.415 0.003,0.087 0.007,0.173 0.009,0.26 0.46,14.968 -1.66,30.071 -6.317,44.305 -0.043,0.131 -0.086,0.262 -0.129,0.394 -1.236,-0.121 -4.101,-0.414 -4.281,-0.433 -16.328,-1.724 -32.605,-3.914 -48.901,-5.907 -1.967,-0.24 -3.943,-0.48 -5.933,-0.718 0.013,-0.038 0.023,-0.076 0.036,-0.114 13.423,-39.698 0.828,-77.047 -8.267,-96.373 26.388,4.308 48.717,11.068 66.561,20.171 z m 101.49,56.32 c 16.705,4.307 30.314,14.829 36.404,28.147 0.088,0.191 0.024,0.439 -0.146,0.564 -11.769,8.712 -28.77,11.342 -45.475,7.035 -1.665,-0.43 -3.364,-0.943 -5.048,-1.527 -5.955,-2.065 -11.743,3.99 -9.434,9.839 0.654,1.657 1.239,3.333 1.739,4.98 5.006,16.509 3.093,33.605 -5.117,45.73 -0.118,0.174 -0.363,0.249 -0.558,0.169 -26.333,-10.688 -38.689,-45.81 -29.236,-71.627 0.035,-0.096 0.073,-0.191 0.109,-0.287 8.488,-22.743 35.319,-28.551 56.762,-23.023 z m -53.514,-5.675 c -2.232,1.592 -6.822,5.824 -7.082,6.119 -6.816,7.755 -11.312,17.536 -13.29,28.261 -0.067,0 -7.627,-0.147 -11.332,-0.388 -0.046,-0.003 -0.093,-0.006 -0.139,-0.009 0.023,-0.076 0.043,-0.151 0.066,-0.227 2.911,-9.642 4.816,-19.585 5.659,-29.623 1.201,-14.296 0.277,-28.808 -2.78,-42.828 -0.007,-0.031 -0.013,-0.064 -0.02,-0.095 14.116,10.772 23.801,23.756 28.918,38.79 z m -201.39,19.367 c -0.671,0.011 -1.339,0.028 -2.009,0.042 -17.212,0.374 -34.408,1.417 -51.521,3.319 -3.752,0.374 -7.501,0.769 -11.249,1.182 -0.035,-0.094 -0.068,-0.188 -0.103,-0.282 -9.687,-26.047 -6.635,-55.078 3.465,-80.517 2.237,-5.633 4.798,-11.164 7.789,-16.438 16.434,-1.874 34.428,-2.929 53.627,-3.146 v 95.84 z m -71.896,-90.091 c -9.012,18.974 -14.24,39.908 -14.083,60.967 0.088,11.815 1.954,23.599 5.692,34.814 0.068,0.205 0.127,0.41 0.197,0.615 -16.635,1.993 -33.243,4.259 -49.897,6.089 -3.069,0.342 -6.139,0.667 -9.212,0.968 -0.04,-0.121 -0.079,-0.241 -0.119,-0.362 -6.879,-21.074 -8.206,-43.835 -3.927,-65.582 1.623,-8.248 3.658,-14.311 4.837,-17.441 17.839,-9.092 40.168,-15.852 66.556,-20.159 -0.015,0.029 -0.029,0.061 -0.044,0.091 z m -85.57,31.908 c -0.008,0.034 -0.015,0.07 -0.022,0.105 -5.282,23.858 -4.17,49.094 2.876,72.467 0.022,0.074 0.042,0.147 0.065,0.221 -19.11,1.115 -30.811,-0.182 -34.837,-3.872 C 15.511,225.151 15,224.32 15,222.555 15,195.702 26.149,173.7 48.198,156.934 Z"
     inkscape:connector-curvature="0"
     style="stroke-width:15.99999809" /></g>
<g
   id="g30"
   transform="translate(0,-388.79537)">
</g>
<g
   id="g32"
   transform="translate(0,-388.79537)">
</g>
<g
   id="g34"
   transform="translate(0,-388.79537)">
</g>
<g
   id="g36"
   transform="translate(0,-388.79537)">
</g>
<g
   id="g38"
   transform="translate(0,-388.79537)">
</g>
<g
   id="g40"
   transform="translate(0,-388.79537)">
</g>
<g
   id="g42"
   transform="translate(0,-388.79537)">
</g>
<g
   id="g44"
   transform="translate(0,-388.79537)">
</g>
<g
   id="g46"
   transform="translate(0,-388.79537)">
</g>
<g
   id="g48"
   transform="translate(0,-388.79537)">
</g>
<g
   id="g50"
   transform="translate(0,-388.79537)">
</g>
<g
   id="g52"
   transform="translate(0,-388.79537)">
</g>
<g
   id="g54"
   transform="translate(0,-388.79537)">
</g>
<g
   id="g56"
   transform="translate(0,-388.79537)">
</g>
<g
   id="g58"
   transform="translate(0,-388.79537)">
</g>
</svg>