<svg id="Capa_1" enable-background="new 0 0 512 512" height="512" viewBox="0 0 512 512" width="512" xmlns="http://www.w3.org/2000/svg"><g><g><path d="m41.642 41.636 323.148 323.148c7.81 7.81 7.81 20.474 0 28.284-7.81 7.81-20.474 7.81-28.284 0l-323.148-323.148c-7.81-7.81-7.81-20.474 0-28.284 7.81-7.811 20.474-7.811 28.284 0z" fill="#e3a67b"/></g><g><path d="m69.926 13.352 323.148 323.148c7.81 7.81 7.81 20.474 0 28.284-7.81 7.81-20.474 7.81-28.284 0l-323.148-323.148c-7.81-7.81-7.81-20.474 0-28.284 7.811-7.811 20.474-7.811 28.284 0z" fill="#f2b88f"/></g><g><path d="m456.004 252.357c0-14.649-6.694-27.733-17.189-36.363 6.393-11.99 7.571-26.64 1.965-40.173-5.606-13.534-16.798-23.06-29.796-27.017 1.318-13.524-3.2-27.509-13.558-37.867s-24.343-14.876-37.867-13.558c-3.958-12.999-13.484-24.191-27.017-29.797-13.534-5.606-28.183-4.428-40.173 1.965-8.631-10.495-21.715-17.189-36.363-17.189-14.649 0-27.733 6.694-36.363 17.189-11.99-6.393-26.64-7.571-40.173-1.965-13.534 5.606-23.06 16.797-27.017 29.797-13.524-1.318-27.509 3.2-37.867 13.558s-14.876 24.343-13.558 37.867c-12.999 3.958-24.191 13.484-29.796 27.017-5.606 13.533-4.428 28.183 1.965 40.173-10.495 8.631-17.189 21.715-17.189 36.363 0 14.649 6.694 27.732 17.189 36.363-6.393 11.99-7.571 26.64-1.965 40.173 5.606 13.534 16.797 23.06 29.796 27.017-1.318 13.524 3.2 27.509 13.558 37.867s24.343 14.876 37.867 13.558c3.958 12.999 13.484 24.191 27.017 29.797 13.534 5.606 28.183 4.428 40.173-1.965 8.631 10.495 21.715 17.189 36.363 17.189 14.649 0 27.733-6.694 36.363-17.189 11.99 6.393 26.64 7.571 40.173 1.965 13.534-5.606 23.06-16.798 27.017-29.797 13.524 1.318 27.509-3.2 37.867-13.558s14.876-24.344 13.558-37.867c12.999-3.958 24.191-13.484 29.796-27.017 5.606-13.533 4.428-28.183-1.965-40.173 10.495-8.631 17.189-21.714 17.189-36.363z" fill="#fdffdc"/></g><g><g><path d="m269.473 407.336c-13.524 1.318-27.509-3.2-37.867-13.558s-14.876-24.344-13.558-37.867c-12.999-3.958-24.191-13.484-29.796-27.017-5.606-13.533-4.428-28.183 1.965-40.173-10.495-8.631-17.189-21.715-17.189-36.363 0-14.649 6.694-27.732 17.189-36.363-6.393-11.99-7.571-26.64-1.965-40.173 5.606-13.534 16.797-23.06 29.796-27.017-1.318-13.524 3.2-27.509 13.558-37.867s24.344-14.877 37.867-13.558c3.541-11.632 11.552-21.803 22.892-27.834-8.631-10.494-21.714-17.187-36.361-17.187-14.649 0-27.733 6.694-36.363 17.189-11.99-6.393-26.64-7.571-40.173-1.965s-23.06 16.797-27.017 29.797c-13.524-1.318-27.509 3.2-37.867 13.558s-14.876 24.343-13.558 37.867c-12.999 3.958-24.191 13.484-29.796 27.017-5.606 13.533-4.428 28.183 1.965 40.173-10.495 8.631-17.189 21.715-17.189 36.363 0 14.649 6.694 27.733 17.189 36.363-6.393 11.99-7.571 26.64-1.965 40.173 5.606 13.534 16.797 23.06 29.796 27.017-1.318 13.524 3.2 27.509 13.558 37.867s24.343 14.876 37.867 13.558c3.958 12.999 13.484 24.191 27.017 29.797s28.183 4.428 40.173-1.965c8.631 10.495 21.715 17.189 36.363 17.189s27.731-6.693 36.361-17.187c-11.34-6.03-19.351-16.202-22.892-27.834z" fill="#fdffbf"/></g></g><g><path d="m504.5 255.994c0 136.936-110.761 248.003-247.581 248.498-137.18.497-249.419-113.245-249.419-250.427 0-21.026 17.045-38.072 38.072-38.072h420.857c21.028 0 38.074 17.048 38.072 38.075z" fill="#cff9ff"/></g><g><path d="m152.081 254.065c0-21.026 17.045-38.072 38.072-38.072h-144.582c-21.026 0-38.072 17.045-38.072 38.072 0 137.182 112.239 250.924 249.419 250.427 24.971-.09 49.068-3.879 71.788-10.821-101.959-31.439-176.625-127.721-176.625-239.606z" fill="#b5efff"/></g><g><path d="m14.84 314.069h482.819c4.462-18.633 6.841-38.075 6.841-58.075v-1.925h-497c0 20.636 2.557 40.734 7.34 60z" fill="#96e8ff"/></g><g><path d="m14.84 314.069h144.572c-4.782-19.264-7.33-39.365-7.33-60h-144.582c0 20.636 2.557 40.734 7.34 60z" fill="#80dbff"/></g><g><g><g><ellipse cx="176.359" cy="398.434" fill="#ff9b87" rx="29.387" ry="23.403"/></g><g><ellipse cx="335.649" cy="398.434" fill="#ff9b87" rx="29.387" ry="23.403"/></g><g><path d="m279.697 380.453c0-14.643-10.608-16.019-23.694-16.019-13.085 0-23.693 1.376-23.693 16.019s10.608 26.513 23.693 26.513c13.086 0 23.694-11.871 23.694-26.513z" fill="#595959"/></g></g><g><path d="m181.271 377.994c-4.143 0-7.5-3.358-7.5-7.5v-12c0-4.142 3.357-7.5 7.5-7.5s7.5 3.358 7.5 7.5v12c0 4.142-3.357 7.5-7.5 7.5z"/></g><g><path d="m256.004 414.465c-17.2 0-31.193-15.258-31.193-34.013 0-23.519 21.859-23.519 31.193-23.519s31.193 0 31.193 23.519c0 18.756-13.993 34.013-31.193 34.013zm0-42.531c-15.538 0-16.193 2.611-16.193 8.519 0 10.484 7.265 19.013 16.193 19.013s16.193-8.529 16.193-19.013c0-5.908-.655-8.519-16.193-8.519z"/></g><g><path d="m330.736 377.994c-4.143 0-7.5-3.358-7.5-7.5v-12c0-4.142 3.357-7.5 7.5-7.5s7.5 3.358 7.5 7.5v12c0 4.142-3.357 7.5-7.5 7.5z"/></g></g><path d="m498.654 221.843c-8.607-8.608-20.053-13.349-32.226-13.349h-16.597c3.258-11.665 2.586-24.175-2.124-35.543-5.51-13.304-15.909-23.736-29.001-29.308-.137-14.228-5.796-27.828-15.979-38.01-10.183-10.183-23.781-15.842-38.011-15.978-5.57-13.093-16.003-23.492-29.307-29.002s-28.033-5.534-41.231-.215c-10.157-9.964-23.776-15.58-38.176-15.58s-28.019 5.615-38.176 15.579c-13.198-5.318-27.929-5.295-41.231.216-11.075 4.588-20.149 12.571-26.096 22.667l-75.269-75.272c-10.723-10.723-28.17-10.723-38.893 0-5.564 5.565-8.233 12.942-8.021 20.249-.272-.008-.543-.02-.817-.02-7.346 0-14.252 2.86-19.446 8.055-10.722 10.722-10.722 28.168 0 38.891l74.516 74.516c-8.016 5.833-14.371 13.798-18.271 23.211-4.723 11.402-5.398 23.886-2.135 35.543h-16.592c-25.128.001-45.571 20.444-45.571 45.572 0 34.785 6.913 68.645 20.546 100.637 13.168 30.9 31.967 58.646 55.873 82.466 48.452 48.276 112.193 74.825 179.598 74.825.306 0 .624 0 .93-.001 68.182-.247 132.243-26.985 180.383-75.29 48.151-48.316 74.67-112.493 74.67-180.708v-1.924c.001-12.174-4.738-23.619-13.346-32.227zm-479.993-174.904c2.36-2.361 5.5-3.661 8.839-3.661s6.478 1.3 8.838 3.661l19.203 19.203c2.93 2.929 7.678 2.929 10.607 0s2.929-7.678 0-10.606l-19.203-19.203c-4.873-4.874-4.873-12.805 0-17.678 4.873-4.874 12.805-4.873 17.678 0l72.128 72.128c-8.716 1.803-16.892 5.735-23.827 11.528l-25.563-25.562c-2.93-2.929-7.678-2.929-10.607 0s-2.929 7.678 0 10.606l26.067 26.066c-5.304 7.74-8.499 16.695-9.305 26.05l-74.855-74.854c-4.874-4.874-4.874-12.804 0-17.678zm59.495 131.752c4.545-10.971 13.676-19.25 25.053-22.713 3.417-1.041 5.627-4.347 5.28-7.902-1.154-11.836 3-23.44 11.396-31.837 8.396-8.396 20.003-12.549 31.837-11.396 3.543.347 6.862-1.862 7.902-5.281 3.463-11.376 11.741-20.507 22.712-25.051 10.969-4.543 23.28-3.941 33.775 1.654 3.152 1.681 7.053.905 9.321-1.854 7.554-9.185 18.696-14.453 30.57-14.453s23.017 5.268 30.57 14.453c2.269 2.759 6.169 3.535 9.321 1.854 10.496-5.596 22.804-6.198 33.775-1.654s19.249 13.675 22.712 25.051c1.04 3.417 4.349 5.623 7.902 5.281 11.831-1.154 23.44 3 31.836 11.396 8.397 8.397 12.552 20.001 11.397 31.837-.347 3.555 1.863 6.862 5.28 7.902 11.377 3.463 20.508 11.742 25.052 22.713 3.964 9.569 3.986 20.255.175 29.803h-356.047c-3.817-9.549-3.794-20.206.181-29.803zm-32.585 44.803h420.857c8.166 0 15.844 3.18 21.618 8.955 3.962 3.963 6.702 8.822 8.032 14.12h-150.342c-4.143 0-7.5 3.358-7.5 7.5s3.357 7.5 7.5 7.5h151.193c-.352 15.394-2.17 30.435-5.301 45h-470.915c-3.24-14.67-5.121-29.719-5.586-45h300.609c4.143 0 7.5-3.358 7.5-7.5s-3.357-7.5-7.5-7.5h-299.803c3.351-13.245 15.367-23.075 29.638-23.075zm211.321 273.498c-.292.001-.582.001-.873.001-63.403 0-123.396-24.999-169.012-70.451-29.891-29.783-51.12-65.781-62.465-104.974h463.367c-28.592 100.757-121.333 175.027-231.017 175.424z"/></g></svg>