<?xml version="1.0" encoding="UTF-8" standalone="no"?>
<!-- Created with Inkscape (http://www.inkscape.org/) -->

<svg
   xmlns:dc="http://purl.org/dc/elements/1.1/"
   xmlns:cc="http://creativecommons.org/ns#"
   xmlns:rdf="http://www.w3.org/1999/02/22-rdf-syntax-ns#"
   xmlns:svg="http://www.w3.org/2000/svg"
   xmlns="http://www.w3.org/2000/svg"
   xmlns:sodipodi="http://sodipodi.sourceforge.net/DTD/sodipodi-0.dtd"
   xmlns:inkscape="http://www.inkscape.org/namespaces/inkscape"
   width="16.933336mm"
   height="16.933334mm"
   viewBox="0 0 16.933336 16.933334"
   version="1.1"
   id="svg8"
   inkscape:version="0.92.5 (0.92.5+68)"
   sodipodi:docname="logo.svg">
  <defs
     id="defs2" />
  <sodipodi:namedview
     id="base"
     pagecolor="#ffffff"
     bordercolor="#666666"
     borderopacity="1.0"
     inkscape:pageopacity="0.0"
     inkscape:pageshadow="2"
     inkscape:zoom="2"
     inkscape:cx="90.971314"
     inkscape:cy="60.475901"
     inkscape:document-units="mm"
     inkscape:current-layer="g856"
     showgrid="false"
     inkscape:window-width="1366"
     inkscape:window-height="700"
     inkscape:window-x="267"
     inkscape:window-y="1080"
     inkscape:window-maximized="1"
     fit-margin-top="0"
     fit-margin-left="0"
     fit-margin-right="0"
     fit-margin-bottom="0" />
  <metadata
     id="metadata5">
    <rdf:RDF>
      <cc:Work
         rdf:about="">
        <dc:format>image/svg+xml</dc:format>
        <dc:type
           rdf:resource="http://purl.org/dc/dcmitype/StillImage" />
        <dc:title></dc:title>
      </cc:Work>
    </rdf:RDF>
  </metadata>
  <g
     inkscape:label="Layer 1"
     inkscape:groupmode="layer"
     id="layer1"
     transform="translate(-92.497077,-164.71805)">
    <g
       id="g1512"
       transform="translate(-3.4745039,0.26726953)">
      <g
         id="g856">
        <circle
           cy="172.91745"
           cx="104.43825"
           id="path833"
           style="opacity:1;fill:#ffffff;fill-opacity:1;stroke:#333333;stroke-width:1.05833333;stroke-linejoin:miter;stroke-miterlimit:4;stroke-dasharray:none;stroke-dashoffset:0;stroke-opacity:0.98678416"
           r="7.9375" />
        <g
           style="stroke-width:5.94876575"
           transform="matrix(0.04447701,0,0,0.04447701,97.852248,165.37694)"
           id="g1779">
          <g
             style="stroke-width:5.94876575"
             id="g1720">
            <g
               inkscape:export-ydpi="96"
               inkscape:export-xdpi="96"
               transform="matrix(1.185659,0,0,1.1857846,-34.898504,-173.74701)"
               style="stroke-width:5.01699972"
               id="g1718">
              <path
                 style="fill:#333333;stroke-width:5.01699972;fill-opacity:1"
                 inkscape:connector-curvature="0"
                 d="m 154.31703,128.96416 c -88.672998,0 -160.5459979,71.873 -160.5459979,160.547 0,63.891 37.4179999,118.894 91.4449999,144.734 l 5.025,-97.098 c 0,0 -9.452,-3.102 -11.521,-4.112 -20.048,-8.831 -34.612,-34.833 -34.612,-68.58 0,-36.825 28.559,-68.544 56.169998,-68.806 0.035,0 0.035,0 0.058,0 0.012,0 0.035,0 0.046,0 27.617,0.261 56.177,31.98 56.177,68.806 0,33.747 -14.582,59.738 -34.589,68.58 -0.157,0.069 -11.613,4.229 -11.613,4.229 l 5.612,107.961 c 12.315,3.031 25.119,4.81 38.37,4.81 17.87,0 34.984,-3.044 51.041,-8.424 l 4.973,-96.214 c -13.105,-2.882 -24.283,-11.225 -31.289,-21.692 -8.679,-13.001 6.681,-128.067 6.681,-128.067 h 9.992 v 107.978 h 9.923 v -107.966 h 10.852 v 107.99 h 9.876 v -107.99 h 11.259 v 107.99 h 9.91 v -107.99 h 7.668 c 0,0 15.36,115.066 6.67,128.067 -6.937,10.364 -18.01,18.683 -30.952,21.634 -0.232,0.082 -0.442,0.162 -0.442,0.162 l 4.322,82.761 c 47.823,-27.804 80.053,-79.46 80.053,-138.762 -0.024,-88.674 -71.897,-160.548 -160.559,-160.548 z"
                 id="path1712" />
            </g>
          </g>
          <g
             style="stroke-width:5.94876575"
             id="g1722" />
          <g
             style="stroke-width:5.94876575"
             id="g1724" />
          <g
             style="stroke-width:5.94876575"
             id="g1726" />
          <g
             style="stroke-width:5.94876575"
             id="g1728" />
          <g
             style="stroke-width:5.94876575"
             id="g1730" />
          <g
             style="stroke-width:5.94876575"
             id="g1732" />
          <g
             style="stroke-width:5.94876575"
             id="g1734" />
          <g
             style="stroke-width:5.94876575"
             id="g1736" />
          <g
             style="stroke-width:5.94876575"
             id="g1738" />
          <g
             style="stroke-width:5.94876575"
             id="g1740" />
          <g
             style="stroke-width:5.94876575"
             id="g1742" />
          <g
             style="stroke-width:5.94876575"
             id="g1744" />
          <g
             style="stroke-width:5.94876575"
             id="g1746" />
          <g
             style="stroke-width:5.94876575"
             id="g1748" />
          <g
             style="stroke-width:5.94876575"
             id="g1750" />
        </g>
      </g>
    </g>
  </g>
</svg>
