<?xml version="1.0" encoding="UTF-8" standalone="no"?>
<!-- Created with Inkscape (http://www.inkscape.org/) -->

<svg
   xmlns:dc="http://purl.org/dc/elements/1.1/"
   xmlns:cc="http://creativecommons.org/ns#"
   xmlns:rdf="http://www.w3.org/1999/02/22-rdf-syntax-ns#"
   xmlns:svg="http://www.w3.org/2000/svg"
   xmlns="http://www.w3.org/2000/svg"
   xmlns:sodipodi="http://sodipodi.sourceforge.net/DTD/sodipodi-0.dtd"
   xmlns:inkscape="http://www.inkscape.org/namespaces/inkscape"
   width="16.933332mm"
   height="16.933334mm"
   viewBox="0 0 16.933332 16.933334"
   version="1.1"
   id="svg8"
   inkscape:version="0.92.5 (0.92.5+68)"
   sodipodi:docname="logo.svg">
  <defs
     id="defs2" />
  <sodipodi:namedview
     id="base"
     pagecolor="#ffffff"
     bordercolor="#666666"
     borderopacity="1.0"
     inkscape:pageopacity="0.0"
     inkscape:pageshadow="2"
     inkscape:zoom="1.4"
     inkscape:cx="22.854677"
     inkscape:cy="-36.895132"
     inkscape:document-units="mm"
     inkscape:current-layer="g1512"
     showgrid="false"
     inkscape:window-width="1366"
     inkscape:window-height="700"
     inkscape:window-x="267"
     inkscape:window-y="1080"
     inkscape:window-maximized="1"
     fit-margin-top="0"
     fit-margin-left="0"
     fit-margin-right="0"
     fit-margin-bottom="0" />
  <metadata
     id="metadata5">
    <rdf:RDF>
      <cc:Work
         rdf:about="">
        <dc:format>image/svg+xml</dc:format>
        <dc:type
           rdf:resource="http://purl.org/dc/dcmitype/StillImage" />
        <dc:title></dc:title>
      </cc:Work>
    </rdf:RDF>
  </metadata>
  <g
     inkscape:label="Layer 1"
     inkscape:groupmode="layer"
     id="layer1"
     transform="translate(-97.639333,-164.78754)">
    <g
       id="g1512"
       transform="translate(-3.4745039,0.26726953)">
      <g
         id="g1779"
         transform="matrix(0.04447701,0,0,0.04447701,102.9945,165.44643)"
         style="stroke-width:5.94876575">
        <g
           id="g1720"
           style="stroke-width:5.94876575">
          <g
             id="g1718"
             style="stroke-width:5.01699972"
             transform="matrix(1.185659,0,0,1.1857846,-34.898504,-173.74701)"
             inkscape:export-xdpi="96"
             inkscape:export-ydpi="96">
            <path
               id="path1712"
               d="m 154.31703,128.96416 c -88.672998,0 -160.5459979,71.873 -160.5459979,160.547 0,63.891 37.4179999,118.894 91.4449999,144.734 l 5.025,-97.098 c 0,0 -9.452,-3.102 -11.521,-4.112 -20.048,-8.831 -34.612,-34.833 -34.612,-68.58 0,-36.825 28.559,-68.544 56.169998,-68.806 0.035,0 0.035,0 0.058,0 0.012,0 0.035,0 0.046,0 27.617,0.261 56.177,31.98 56.177,68.806 0,33.747 -14.582,59.738 -34.589,68.58 -0.157,0.069 -11.613,4.229 -11.613,4.229 l 5.612,107.961 c 12.315,3.031 25.119,4.81 38.37,4.81 17.87,0 34.984,-3.044 51.041,-8.424 l 4.973,-96.214 c -13.105,-2.882 -24.283,-11.225 -31.289,-21.692 -8.679,-13.001 6.681,-128.067 6.681,-128.067 h 9.992 v 107.978 h 9.923 v -107.966 h 10.852 v 107.99 h 9.876 v -107.99 h 11.259 v 107.99 h 9.91 v -107.99 h 7.668 c 0,0 15.36,115.066 6.67,128.067 -6.937,10.364 -18.01,18.683 -30.952,21.634 -0.232,0.082 -0.442,0.162 -0.442,0.162 l 4.322,82.761 c 47.823,-27.804 80.053,-79.46 80.053,-138.762 -0.024,-88.674 -71.897,-160.548 -160.559,-160.548 z"
               inkscape:connector-curvature="0"
               style="fill:#1a1a1a;stroke-width:5.01699972" />
            <path
               id="path1714"
               d="m 67.607032,248.13116 c 0.575,-2.341 1.348,-4.566 1.383,-4.606 0.25,-0.877 -0.215,-1.772 -1.168,-2.341 -0.906,-0.488 -2.01,-0.238 -2.521,0.546 0,0 -1.098,1.749 -2.69,4.334 -1.295,2.225 -3.212,5.78 -4.52,10.207 -1.133,3.88 -2.486,9.039 -3.096,14.813 -0.261,3.033 -0.32,5.769 -0.227,8.586 0.227,3.212 0.714,5.96 1.644,9.103 3.154,8.964 5.583,17.644 14.349,26.206 2.771,2.847 5.618,4.787 7.674,6.216 l 0.726,0.511 c 0.442,0.291 0.866,0.559 1.284,0.803 1.726,0.906 2.881,1.231 3.091,1.277 0.859,0.232 1.743,-0.186 2.108,-0.883 0.343,-0.732 0.093,-1.65 -0.621,-2.23 0,0 -1,-0.871 -2.283,-2.498 -0.877,-0.988 -1.83,-2.417 -2.939,-4.031 -0.784,-1.139 -1.708,-2.429 -2.568,-3.684 -4.27,-6.518 -6.732,-15.615 -10.137,-24.934 -0.668,-2.022 -1.214,-4.642 -1.418,-6.867 -0.272,-2.568 -0.4,-5.042 -0.4,-7.337 -0.099,-5.333 0.139,-9.911 0.604,-13.623 0.534,-4.188 0.952,-7.331 1.725,-9.568 z"
               inkscape:connector-curvature="0"
               style="fill:#1a1a1a;stroke-width:5.01699972" />
          </g>
        </g>
        <g
           id="g1722"
           style="stroke-width:5.94876575" />
        <g
           id="g1724"
           style="stroke-width:5.94876575" />
        <g
           id="g1726"
           style="stroke-width:5.94876575" />
        <g
           id="g1728"
           style="stroke-width:5.94876575" />
        <g
           id="g1730"
           style="stroke-width:5.94876575" />
        <g
           id="g1732"
           style="stroke-width:5.94876575" />
        <g
           id="g1734"
           style="stroke-width:5.94876575" />
        <g
           id="g1736"
           style="stroke-width:5.94876575" />
        <g
           id="g1738"
           style="stroke-width:5.94876575" />
        <g
           id="g1740"
           style="stroke-width:5.94876575" />
        <g
           id="g1742"
           style="stroke-width:5.94876575" />
        <g
           id="g1744"
           style="stroke-width:5.94876575" />
        <g
           id="g1746"
           style="stroke-width:5.94876575" />
        <g
           id="g1748"
           style="stroke-width:5.94876575" />
        <g
           id="g1750"
           style="stroke-width:5.94876575" />
      </g>
    </g>
  </g>
</svg>
