<?xml version="1.0" encoding="UTF-8" standalone="no"?>
<svg
   xmlns:dc="http://purl.org/dc/elements/1.1/"
   xmlns:cc="http://creativecommons.org/ns#"
   xmlns:rdf="http://www.w3.org/1999/02/22-rdf-syntax-ns#"
   xmlns:svg="http://www.w3.org/2000/svg"
   xmlns="http://www.w3.org/2000/svg"
   xmlns:sodipodi="http://sodipodi.sourceforge.net/DTD/sodipodi-0.dtd"
   xmlns:inkscape="http://www.inkscape.org/namespaces/inkscape"
   id="Layer_3"
   enable-background="new 0 0 64 64"
   height="48"
   viewBox="0 0 6 6"
   width="48"
   version="1.1"
   sodipodi:docname="center.svg"
   inkscape:version="0.92.5 (0.92.5+68)">
  <metadata
     id="metadata85">
    <rdf:RDF>
      <cc:Work
         rdf:about="">
        <dc:format>image/svg+xml</dc:format>
        <dc:type
           rdf:resource="http://purl.org/dc/dcmitype/StillImage" />
        <dc:title></dc:title>
      </cc:Work>
    </rdf:RDF>
  </metadata>
  <defs
     id="defs83" />
  <sodipodi:namedview
     pagecolor="#ffffff"
     bordercolor="#666666"
     borderopacity="1"
     objecttolerance="10"
     gridtolerance="10"
     guidetolerance="10"
     inkscape:pageopacity="0"
     inkscape:pageshadow="2"
     inkscape:window-width="1366"
     inkscape:window-height="700"
     id="namedview81"
     showgrid="false"
     fit-margin-top="0"
     fit-margin-left="0"
     fit-margin-right="0"
     fit-margin-bottom="0"
     inkscape:zoom="3.6875"
     inkscape:cx="-26.305085"
     inkscape:cy="47.407661"
     inkscape:window-x="0"
     inkscape:window-y="0"
     inkscape:window-maximized="1"
     inkscape:current-layer="Layer_3" />
  <g
     id="g78"
     transform="matrix(0.1,0,0,0.1,-0.2,-0.2)"
     style="stroke-width:10.00000095">
    <path
       d="M 4,12 H 60 V 58 H 4 Z"
       id="path2"
       inkscape:connector-curvature="0"
       style="fill:#b9c0c9;stroke-width:150" />
    <path
       d="M 4,12 H 57 V 58 H 4 Z"
       id="path4"
       inkscape:connector-curvature="0"
       style="fill:#d5d9df;stroke-width:150" />
    <path
       d="m 12,58 v -6 c 0,-3.314 2.686,-6 6,-6 3.314,0 6,2.686 6,6 v 6 z"
       id="path6"
       inkscape:connector-curvature="0"
       style="fill:#46484c;stroke-width:150" />
    <path
       d="M 16.5,46.197 C 13.914,46.864 12,49.205 12,52 v 6 h 9 v -6 c 0,-2.795 -1.914,-5.136 -4.5,-5.803 z"
       id="path8"
       inkscape:connector-curvature="0"
       style="fill:#5d6065;stroke-width:150" />
    <path
       d="m 40,58 v -6 c 0,-3.314 2.686,-6 6,-6 3.314,0 6,2.686 6,6 v 6 z"
       id="path10"
       inkscape:connector-curvature="0"
       style="fill:#46484c;stroke-width:150" />
    <path
       d="M 44.5,46.197 C 41.914,46.864 40,49.205 40,52 v 6 h 9 v -6 c 0,-2.795 -1.914,-5.136 -4.5,-5.803 z"
       id="path12"
       inkscape:connector-curvature="0"
       style="fill:#5d6065;stroke-width:150" />
    <path
       d="m 40,38 h 12 v 4 H 40 Z"
       id="path14"
       inkscape:connector-curvature="0"
       style="fill:#1f80aa;stroke-width:150" />
    <path
       d="m 40,38 h 9 v 4 h -9 z"
       id="path16"
       inkscape:connector-curvature="0"
       style="fill:#29abe2;stroke-width:150" />
    <path
       d="m 12,38 h 12 v 4 H 12 Z"
       id="path18"
       inkscape:connector-curvature="0"
       style="fill:#1f80aa;stroke-width:150" />
    <path
       d="m 12,38 h 9 v 4 h -9 z"
       id="path20"
       inkscape:connector-curvature="0"
       style="fill:#29abe2;stroke-width:150" />
    <path
       d="m 2,58 h 60 v 4 H 2 Z"
       id="path22"
       inkscape:connector-curvature="0"
       style="fill:#5d6065;stroke-width:150" />
    <path
       d="m 2,58 h 57 v 4 H 2 Z"
       id="path24"
       inkscape:connector-curvature="0"
       style="fill:#8b9097;stroke-width:150" />
    <path
       d="m 24,54 h 16 v 4 H 24 Z"
       id="path26"
       inkscape:connector-curvature="0"
       style="fill:#1f80aa;stroke-width:150" />
    <path
       d="m 24,54 h 13 v 4 H 24 Z"
       id="path28"
       inkscape:connector-curvature="0"
       style="fill:#29abe2;stroke-width:150" />
    <path
       d="m 4,54 h 8 v 4 H 4 Z"
       id="path30"
       inkscape:connector-curvature="0"
       style="fill:#1f80aa;stroke-width:150" />
    <path
       d="m 4,54 h 5 v 4 H 4 Z"
       id="path32"
       inkscape:connector-curvature="0"
       style="fill:#29abe2;stroke-width:150" />
    <path
       d="m 52,54 h 8 v 4 h -8 z"
       id="path34"
       inkscape:connector-curvature="0"
       style="fill:#1f80aa;stroke-width:150" />
    <path
       d="m 52,54 h 5 v 4 h -5 z"
       id="path36"
       inkscape:connector-curvature="0"
       style="fill:#29abe2;stroke-width:150" />
    <path
       d="M 4,22 H 18 V 34 H 4 Z"
       id="path38"
       inkscape:connector-curvature="0"
       style="fill:#a2dbf7;stroke-width:150" />
    <path
       d="M 4,22 H 15 V 34 H 4 Z"
       id="path40"
       inkscape:connector-curvature="0"
       style="fill:#b5e2f9;stroke-width:150" />
    <path
       d="M 18,22 H 32 V 34 H 18 Z"
       id="path42"
       inkscape:connector-curvature="0"
       style="fill:#a2dbf7;stroke-width:150" />
    <path
       d="M 18,22 H 29 V 34 H 18 Z"
       id="path44"
       inkscape:connector-curvature="0"
       style="fill:#b5e2f9;stroke-width:150" />
    <path
       d="M 32,22 H 46 V 34 H 32 Z"
       id="path46"
       inkscape:connector-curvature="0"
       style="fill:#a2dbf7;stroke-width:150" />
    <path
       d="M 32,22 H 43 V 34 H 32 Z"
       id="path48"
       inkscape:connector-curvature="0"
       style="fill:#b5e2f9;stroke-width:150" />
    <path
       d="M 46,22 H 60 V 34 H 46 Z"
       id="path50"
       inkscape:connector-curvature="0"
       style="fill:#a2dbf7;stroke-width:150" />
    <path
       d="M 46,22 H 57 V 34 H 46 Z"
       id="path52"
       inkscape:connector-curvature="0"
       style="fill:#b5e2f9;stroke-width:150" />
    <path
       d="M 16,2 H 48 V 18 H 16 Z"
       id="path54"
       inkscape:connector-curvature="0"
       style="fill:#1f80aa;stroke-width:150" />
    <path
       d="M 16,2 H 45 V 18 H 16 Z"
       id="path56"
       inkscape:connector-curvature="0"
       style="fill:#29abe2;stroke-width:150" />
    <g
       id="g60"
       style="stroke-width:10.00000095">
      <path
         d="m 25,15 h -5 c -0.553,0 -1,-0.447 -1,-1 V 5 h 2 v 8 h 4 z"
         id="path58"
         inkscape:connector-curvature="0"
         style="fill:#ffffff;stroke-width:10.00000095" />
    </g>
    <g
       id="g64"
       style="stroke-width:10.00000095">
      <path
         d="M 35,15 H 33 V 9 C 33,7.897 32.103,7 31,7 29.897,7 29,7.897 29,9 v 6 H 27 V 9 c 0,-2.206 1.794,-4 4,-4 2.206,0 4,1.794 4,4 z"
         id="path62"
         inkscape:connector-curvature="0"
         style="fill:#ffffff;stroke-width:10.00000095" />
    </g>
    <g
       id="g68"
       style="stroke-width:10.00000095">
      <path
         d="m 42,11 h -4 c -0.553,0 -1,-0.447 -1,-1 V 6 c 0,-0.553 0.447,-1 1,-1 h 4 c 1.654,0 3,1.346 3,3 0,1.654 -1.346,3 -3,3 z M 39,9 h 3 C 42.552,9 43,8.552 43,8 43,7.448 42.552,7 42,7 h -3 z"
         id="path66"
         inkscape:connector-curvature="0"
         style="fill:#ffffff;stroke-width:10.00000095" />
    </g>
    <g
       id="g72"
       style="stroke-width:10.00000095">
      <path
         d="m 42,15 h -4 c -0.553,0 -1,-0.447 -1,-1 v -4 c 0,-0.553 0.447,-1 1,-1 h 4 c 1.654,0 3,1.346 3,3 0,1.654 -1.346,3 -3,3 z m -3,-2 h 3 c 0.552,0 1,-0.448 1,-1 0,-0.552 -0.448,-1 -1,-1 h -3 z"
         id="path70"
         inkscape:connector-curvature="0"
         style="fill:#ffffff;stroke-width:10.00000095" />
    </g>
    <g
       id="g76"
       style="stroke-width:10.00000095">
      <path
         d="m 28,11 h 6 v 2 h -6 z"
         id="path74"
         inkscape:connector-curvature="0"
         style="fill:#ffffff;stroke-width:10.00000095" />
    </g>
  </g>
</svg>
