<?xml version="1.0" encoding="UTF-8" standalone="no"?>
<svg
   xmlns:dc="http://purl.org/dc/elements/1.1/"
   xmlns:cc="http://creativecommons.org/ns#"
   xmlns:rdf="http://www.w3.org/1999/02/22-rdf-syntax-ns#"
   xmlns:svg="http://www.w3.org/2000/svg"
   xmlns="http://www.w3.org/2000/svg"
   xmlns:sodipodi="http://sodipodi.sourceforge.net/DTD/sodipodi-0.dtd"
   xmlns:inkscape="http://www.inkscape.org/namespaces/inkscape"
   id="Capa_1"
   enable-background="new 0 0 512 512"
   height="32"
   viewBox="0 0 26.943438 32"
   width="26.943438"
   version="1.1"
   sodipodi:docname="fastfood.svg"
   inkscape:version="0.92.5 (0.92.5+68)">
  <metadata
     id="metadata111">
    <rdf:RDF>
      <cc:Work
         rdf:about="">
        <dc:format>image/svg+xml</dc:format>
        <dc:type
           rdf:resource="http://purl.org/dc/dcmitype/StillImage" />
        <dc:title></dc:title>
      </cc:Work>
    </rdf:RDF>
  </metadata>
  <defs
     id="defs109" />
  <sodipodi:namedview
     pagecolor="#ffffff"
     bordercolor="#666666"
     borderopacity="1"
     objecttolerance="10"
     gridtolerance="10"
     guidetolerance="10"
     inkscape:pageopacity="0"
     inkscape:pageshadow="2"
     inkscape:window-width="1920"
     inkscape:window-height="1052"
     id="namedview107"
     showgrid="false"
     fit-margin-top="0"
     fit-margin-left="0"
     fit-margin-right="0"
     fit-margin-bottom="0"
     inkscape:zoom="3.6875"
     inkscape:cx="172.6072"
     inkscape:cy="-58.188813"
     inkscape:window-x="0"
     inkscape:window-y="0"
     inkscape:window-maximized="1"
     inkscape:current-layer="Capa_1" />
  <g
     id="g104"
     transform="matrix(0.0625,0,0,0.0625,-2.5283125,0)"
     style="stroke-width:16">
    <g
       id="g4"
       style="stroke-width:16">
      <path
         d="M 400.477,423.593 H 111.523 c -19.15,0 -34.674,-15.524 -34.674,-34.674 0,-19.15 15.524,-34.674 34.674,-34.674 L 256,319.57 400.477,354.244 c 19.15,0 34.674,15.524 34.674,34.674 0,19.151 -15.524,34.675 -34.674,34.675 z"
         id="path2"
         inkscape:connector-curvature="0"
         style="fill:#e7886e;stroke-width:16" />
    </g>
    <g
       id="g8"
       style="stroke-width:16">
      <path
         d="m 211.335,388.919 c 0,-19.15 15.524,-34.675 34.674,-34.675 v -32.277 l -134.486,32.277 c -19.15,0 -34.674,15.524 -34.674,34.674 0,19.15 15.524,34.674 34.674,34.674 h 134.486 c -19.15,0.001 -34.674,-15.523 -34.674,-34.673 z"
         id="path6"
         inkscape:connector-curvature="0"
         style="fill:#e27858;stroke-width:16" />
    </g>
    <g
       id="g12"
       style="stroke-width:16">
      <path
         d="M 394.698,504.5 H 117.302 c -38.3,0 -69.349,-31.048 -69.349,-69.349 0,-12.767 10.35,-23.116 23.116,-23.116 h 369.86 c 12.767,0 23.116,10.35 23.116,23.116 0.002,38.301 -31.047,69.349 -69.347,69.349 z"
         id="path10"
         inkscape:connector-curvature="0"
         style="fill:#ffca8a;stroke-width:16" />
    </g>
    <g
       id="g16"
       style="stroke-width:16">
      <path
         d="m 174.82,435.151 c 0,-12.767 10.35,-23.116 23.116,-23.116 H 71.07 c -12.767,0 -23.116,10.349 -23.116,23.116 0,38.3 31.049,69.349 69.349,69.349 h 126.866 c -38.301,0 -69.349,-31.048 -69.349,-69.349 z"
         id="path14"
         inkscape:connector-curvature="0"
         style="fill:#ffbe73;stroke-width:16" />
    </g>
    <g
       id="g20"
       style="stroke-width:16">
      <path
         d="m 132.714,308.012 c 0,0 63.695,138.698 123.281,138.698 59.586,0 123.291,-138.698 123.291,-138.698 z"
         id="path18"
         inkscape:connector-curvature="0"
         style="fill:#f9ed80;stroke-width:16" />
    </g>
    <g
       id="g24"
       style="stroke-width:16">
      <path
         d="M 400.477,354.244 H 111.523 c -19.15,0 -34.674,-15.524 -34.674,-34.674 0,-19.15 15.524,-34.674 34.674,-34.674 h 288.954 c 19.15,0 34.674,15.524 34.674,34.674 0,19.15 -15.524,34.674 -34.674,34.674 z"
         id="path22"
         inkscape:connector-curvature="0"
         style="fill:#ff6f7f;stroke-width:16" />
    </g>
    <g
       id="g28"
       style="stroke-width:16">
      <path
         d="m 211.335,319.57 c 0,-19.15 15.524,-34.675 34.674,-34.675 H 111.523 c -19.15,0 -34.674,15.524 -34.674,34.674 0,19.15 15.524,34.674 34.674,34.674 h 134.486 c -19.15,0.001 -34.674,-15.523 -34.674,-34.673 z"
         id="path26"
         inkscape:connector-curvature="0"
         style="fill:#fc5c70;stroke-width:16" />
    </g>
    <g
       id="g32"
       style="stroke-width:16">
      <path
         d="m 71.07,294.661 c 0,7.956 7.873,13.582 15.37,10.918 16.704,-5.937 21.66,-20.684 46.28,-20.684 30.825,0 30.825,23.116 61.649,23.116 30.82,0 30.82,-23.116 61.641,-23.116 30.821,0 30.821,23.116 61.643,23.116 30.82,0 30.82,-23.116 61.64,-23.116 24.615,0 29.57,14.745 46.269,20.683 7.497,2.666 15.37,-2.961 15.37,-10.917 0,-37.31 -30.246,-67.556 -67.556,-67.556 h -234.75 c -37.31,0 -67.556,30.245 -67.556,67.556 z"
         id="path30"
         inkscape:connector-curvature="0"
         style="fill:#60d9a7;stroke-width:16" />
    </g>
    <g
       id="g36"
       style="stroke-width:16">
      <path
         d="M 256.009,238.663 V 227.105 H 138.626 c -37.31,0 -67.556,30.246 -67.556,67.556 v 10e-4 c 0,7.956 7.873,13.582 15.369,10.918 16.704,-5.937 21.66,-20.684 46.28,-20.684 30.825,0 30.825,23.116 61.649,23.116 30.82,0 30.82,-23.116 61.641,-23.116 -12.767,0 -23.116,-10.349 -23.116,-23.116 0,-12.768 10.349,-23.117 23.116,-23.117 z"
         id="path34"
         inkscape:connector-curvature="0"
         style="fill:#00cd8c;stroke-width:16" />
    </g>
    <g
       id="g40"
       style="stroke-width:16">
      <path
         d="M 440.93,238.663 H 71.07 c -12.767,0 -23.116,-10.35 -23.116,-23.116 C 47.953,100.645 141.099,7.5 256,7.5 c 114.901,0 208.046,93.145 208.046,208.046 0.001,12.767 -10.349,23.117 -23.116,23.117 z"
         id="path38"
         inkscape:connector-curvature="0"
         style="fill:#ffca8a;stroke-width:16" />
    </g>
    <g
       id="g44"
       style="stroke-width:16">
      <path
         d="M 161.739,30.035 C 94.211,64.416 47.953,134.577 47.953,215.546 c 0,12.767 10.35,23.116 23.116,23.116 H 256 C 140.114,238.663 107.643,61.235 161.739,30.035 Z"
         id="path42"
         inkscape:connector-curvature="0"
         style="fill:#ffbe73;stroke-width:16" />
    </g>
    <g
       id="g72"
       style="stroke-width:16">
      <g
         id="g58"
         style="stroke-width:16">
        <g
           id="g48"
           style="stroke-width:16">
          <ellipse
             cx="176.355"
             cy="161.35001"
             rx="29.386999"
             ry="23.403"
             id="ellipse46"
             style="fill:#ff8997;stroke-width:16" />
        </g>
        <g
           id="g52"
           style="stroke-width:16">
          <ellipse
             cx="335.64499"
             cy="161.35001"
             rx="29.386999"
             ry="23.403"
             id="ellipse50"
             style="fill:#ff8997;stroke-width:16" />
        </g>
        <g
           id="g56"
           style="stroke-width:16">
          <path
             d="m 279.694,143.369 c 0,-14.643 -10.608,-16.019 -23.693,-16.019 -13.086,0 -23.694,1.376 -23.694,16.019 0,14.643 10.608,26.513 23.694,26.513 13.085,0 23.693,-11.87 23.693,-26.513 z"
             id="path54"
             inkscape:connector-curvature="0"
             style="fill:#5c586f;stroke-width:16" />
        </g>
      </g>
      <g
         id="g62"
         style="stroke-width:16">
        <path
           d="m 181.268,140.91 c -4.142,0 -7.5,-3.358 -7.5,-7.5 v -12 c 0,-4.142 3.358,-7.5 7.5,-7.5 4.142,0 7.5,3.358 7.5,7.5 v 12 c 0,4.142 -3.358,7.5 -7.5,7.5 z"
           id="path60"
           inkscape:connector-curvature="0"
           style="stroke-width:16" />
      </g>
      <g
         id="g66"
         style="stroke-width:16">
        <path
           d="m 256,177.382 c -17.2,0 -31.193,-15.258 -31.193,-34.013 0,-23.519 21.859,-23.519 31.193,-23.519 9.334,0 31.193,0 31.193,23.519 0,18.755 -13.993,34.013 -31.193,34.013 z m 0,-42.532 c -15.539,0 -16.193,2.611 -16.193,8.519 0,10.484 7.264,19.013 16.193,19.013 8.929,0 16.193,-8.529 16.193,-19.013 0,-5.908 -0.654,-8.519 -16.193,-8.519 z"
           id="path64"
           inkscape:connector-curvature="0"
           style="stroke-width:16" />
      </g>
      <g
         id="g70"
         style="stroke-width:16">
        <path
           d="m 330.732,140.91 c -4.142,0 -7.5,-3.358 -7.5,-7.5 v -12 c 0,-4.142 3.358,-7.5 7.5,-7.5 4.142,0 7.5,3.358 7.5,7.5 v 12 c 0,4.142 -3.358,7.5 -7.5,7.5 z"
           id="path68"
           inkscape:connector-curvature="0"
           style="stroke-width:16" />
      </g>
    </g>
    <g
       id="g76"
       style="stroke-width:16">
      <circle
         cx="208.489"
         cy="59.057999"
         r="20"
         id="circle74"
         style="fill:#ffbe73;stroke-width:16" />
    </g>
    <g
       id="g80"
       style="stroke-width:16">
      <circle
         cx="376.93399"
         cy="95.709"
         r="15"
         id="circle78"
         style="fill:#ffbe73;stroke-width:16" />
    </g>
    <g
       id="g84"
       style="stroke-width:16">
      <circle
         cx="345.73199"
         cy="453.358"
         r="15"
         id="circle82"
         style="fill:#ffbe73;stroke-width:16" />
    </g>
    <g
       id="g88"
       style="stroke-width:16">
      <circle
         cx="106.362"
         cy="173.45599"
         r="15"
         id="circle86"
         style="fill:#efa65e;stroke-width:16" />
    </g>
    <g
       id="g92"
       style="stroke-width:16">
      <circle
         cx="412.745"
         cy="137.94701"
         r="10"
         id="circle90"
         style="fill:#ffbe73;stroke-width:16" />
    </g>
    <g
       id="g96"
       style="stroke-width:16">
      <circle
         cx="111.523"
         cy="458.358"
         r="10"
         id="circle94"
         style="fill:#efa65e;stroke-width:16" />
    </g>
    <g
       id="g100"
       style="stroke-width:16">
      <circle
         cx="391.93399"
         cy="468.358"
         r="10"
         id="circle98"
         style="fill:#ffbe73;stroke-width:16" />
    </g>
    <path
       d="m 440.93,404.535 h -1.288 c 1.966,-4.934 3.009,-10.231 3.009,-15.616 0,-14.357 -7.216,-27.054 -18.207,-34.674 10.99,-7.62 18.207,-20.318 18.207,-34.674 0,-3.452 -0.417,-6.842 -1.232,-10.137 4.411,-3.609 7.011,-9.034 7.011,-14.772 0,-17.93 -6.45,-35.082 -17.796,-48.498 h 10.296 c 16.882,0 30.616,-13.734 30.616,-30.616 0,-51.821 -18.659,-101.908 -52.539,-141.034 -2.712,-3.131 -7.448,-3.472 -10.58,-0.76 -3.131,2.712 -3.472,7.448 -0.76,10.58 31.52,36.4 48.879,83 48.879,131.214 0,8.611 -7.005,15.616 -15.616,15.616 H 71.07 c -8.611,0 -15.616,-7.005 -15.616,-15.616 C 55.454,104.965 145.418,15 256,15 c 48.208,0 94.803,17.354 131.2,48.867 3.133,2.712 7.868,2.371 10.58,-0.761 2.711,-3.132 2.37,-7.868 -0.761,-10.579 C 357.895,18.654 307.813,0 256,0 198.425,0 144.297,22.421 103.585,63.132 c -40.711,40.711 -63.132,94.84 -63.132,152.415 0,16.882 13.734,30.616 30.616,30.616 H 81.35 c -11.345,13.402 -17.781,30.525 -17.781,48.499 0,5.736 2.598,11.159 7.006,14.768 -0.815,3.297 -1.228,6.689 -1.228,10.14 0,14.357 7.216,27.054 18.207,34.674 -10.99,7.62 -18.207,20.318 -18.207,34.674 0,5.383 1.043,10.681 3.009,15.616 H 71.07 c -16.882,0 -30.616,13.735 -30.616,30.617 0,42.375 34.474,76.849 76.849,76.849 h 277.396 c 42.375,0 76.849,-34.474 76.849,-76.849 -0.002,-16.881 -13.736,-30.616 -30.618,-30.616 z m -13.279,-15.617 c 0,5.605 -1.738,11.065 -4.934,15.616 h -93.269 c 9.696,-12.187 19.53,-26.507 29.389,-42.791 h 41.64 c 14.984,0.001 27.174,12.192 27.174,27.175 z M 103.196,246.163 h 305.569 c 15.455,11.302 24.665,29.341 24.665,48.498 0,1.91 -1.214,2.973 -1.737,3.342 -0.632,0.446 -1.942,1.105 -3.621,0.509 -5.17,-1.838 -9.198,-4.859 -13.462,-8.058 -8.161,-6.121 -17.41,-13.058 -35.319,-13.058 -17.91,0 -27.159,6.938 -35.32,13.058 -7.492,5.62 -13.41,10.058 -26.32,10.058 -12.911,0 -18.829,-4.438 -26.321,-10.058 -8.161,-6.121 -17.411,-13.058 -35.321,-13.058 -17.91,0 -27.16,6.938 -35.32,13.058 -7.492,5.62 -13.41,10.058 -26.32,10.058 -12.913,0 -18.832,-4.438 -26.325,-10.058 -8.162,-6.121 -17.412,-13.058 -35.324,-13.058 -17.912,0 -27.163,6.938 -35.324,13.058 -4.266,3.199 -8.295,6.22 -13.467,8.059 -1.678,0.597 -2.989,-0.063 -3.622,-0.51 -0.522,-0.368 -1.736,-1.432 -1.736,-3.342 -0.001,-19.198 9.17,-37.189 24.625,-48.498 z M 84.349,319.57 c 0,-2.038 0.229,-4.041 0.669,-5.994 1.329,-0.169 2.648,-0.473 3.934,-0.93 7.322,-2.603 12.699,-6.635 17.443,-10.192 7.494,-5.62 13.412,-10.059 26.325,-10.059 12.913,0 18.832,4.438 26.325,10.058 8.162,6.121 17.412,13.058 35.324,13.058 17.91,0 27.16,-6.938 35.32,-13.058 7.492,-5.62 13.41,-10.058 26.32,-10.058 12.911,0 18.829,4.438 26.321,10.058 8.161,6.121 17.411,13.058 35.321,13.058 17.91,0 27.16,-6.938 35.32,-13.058 7.492,-5.62 13.41,-10.058 26.32,-10.058 12.909,0 18.827,4.438 26.319,10.058 4.742,3.557 10.118,7.588 17.437,10.191 1.286,0.457 2.606,0.761 3.935,0.93 0.44,1.953 0.669,3.955 0.669,5.995 0,14.984 -12.19,27.174 -27.175,27.174 h -95.442 c -4.142,0 -7.5,3.358 -7.5,7.5 0,4.142 3.358,7.5 7.5,7.5 h 36.178 c -31.55,50.067 -61.592,77.465 -85.218,77.465 -23.627,0 -53.665,-27.398 -85.211,-77.465 h 104.25 c 4.142,0 7.5,-3.358 7.5,-7.5 0,-4.142 -3.358,-7.5 -7.5,-7.5 H 111.523 C 96.539,346.744 84.349,334.554 84.349,319.57 Z m 0,69.348 c 0,-14.984 12.19,-27.174 27.175,-27.174 h 41.636 c 9.857,16.282 19.69,30.604 29.385,42.791 H 89.287 c -3.196,-4.551 -4.938,-10.014 -4.938,-15.617 z M 394.698,497 H 117.302 c -34.104,0 -61.849,-27.745 -61.849,-61.849 0,-8.611 7.005,-15.617 15.616,-15.617 h 124.344 c 0.441,0.473 0.882,0.958 1.322,1.422 20.912,22.065 40.849,33.253 59.259,33.253 18.393,0 38.312,-11.167 59.205,-33.192 0.459,-0.484 0.92,-0.988 1.38,-1.482 H 440.93 c 8.611,0 15.616,7.006 15.616,15.617 0,34.103 -27.745,61.848 -61.848,61.848 z"
       id="path102"
       inkscape:connector-curvature="0"
       style="stroke-width:16" />
  </g>
</svg>
