<?xml version="1.0" encoding="UTF-8" standalone="no"?>
<svg
   xmlns:dc="http://purl.org/dc/elements/1.1/"
   xmlns:cc="http://creativecommons.org/ns#"
   xmlns:rdf="http://www.w3.org/1999/02/22-rdf-syntax-ns#"
   xmlns:svg="http://www.w3.org/2000/svg"
   xmlns="http://www.w3.org/2000/svg"
   xmlns:sodipodi="http://sodipodi.sourceforge.net/DTD/sodipodi-0.dtd"
   xmlns:inkscape="http://www.inkscape.org/namespaces/inkscape"
   id="Capa_1"
   enable-background="new 0 0 512 512"
   height="31.999203"
   viewBox="0 0 32 31.999203"
   width="32"
   version="1.1"
   sodipodi:docname="meal.svg"
   inkscape:version="0.92.5 (0.92.5+68)">
  <metadata
     id="metadata73">
    <rdf:RDF>
      <cc:Work
         rdf:about="">
        <dc:format>image/svg+xml</dc:format>
        <dc:type
           rdf:resource="http://purl.org/dc/dcmitype/StillImage" />
        <dc:title></dc:title>
      </cc:Work>
    </rdf:RDF>
  </metadata>
  <defs
     id="defs71" />
  <sodipodi:namedview
     pagecolor="#ffffff"
     bordercolor="#666666"
     borderopacity="1"
     objecttolerance="10"
     gridtolerance="10"
     guidetolerance="10"
     inkscape:pageopacity="0"
     inkscape:pageshadow="2"
     inkscape:window-width="1920"
     inkscape:window-height="1052"
     id="namedview69"
     showgrid="false"
     fit-margin-top="0"
     fit-margin-left="0"
     fit-margin-right="0"
     fit-margin-bottom="0"
     inkscape:zoom="7.375"
     inkscape:cx="31.897972"
     inkscape:cy="11.210931"
     inkscape:window-x="0"
     inkscape:window-y="0"
     inkscape:window-maximized="1"
     inkscape:current-layer="Capa_1" />
  <g
     id="g66"
     transform="matrix(0.0625,0,0,0.0625,0,-3.59375e-4)"
     style="stroke-width:16">
    <g
       id="g4"
       style="stroke-width:16">
      <path
         d="M 41.642,41.636 364.79,364.784 c 7.81,7.81 7.81,20.474 0,28.284 -7.81,7.81 -20.474,7.81 -28.284,0 L 13.358,69.92 c -7.81,-7.81 -7.81,-20.474 0,-28.284 7.81,-7.811 20.474,-7.811 28.284,0 z"
         id="path2"
         inkscape:connector-curvature="0"
         style="fill:#e3a67b;stroke-width:16" />
    </g>
    <g
       id="g8"
       style="stroke-width:16">
      <path
         d="M 69.926,13.352 393.074,336.5 c 7.81,7.81 7.81,20.474 0,28.284 -7.81,7.81 -20.474,7.81 -28.284,0 L 41.642,41.636 c -7.81,-7.81 -7.81,-20.474 0,-28.284 7.811,-7.811 20.474,-7.811 28.284,0 z"
         id="path6"
         inkscape:connector-curvature="0"
         style="fill:#f2b88f;stroke-width:16" />
    </g>
    <g
       id="g12"
       style="stroke-width:16">
      <path
         d="m 456.004,252.357 c 0,-14.649 -6.694,-27.733 -17.189,-36.363 6.393,-11.99 7.571,-26.64 1.965,-40.173 -5.606,-13.534 -16.798,-23.06 -29.796,-27.017 1.318,-13.524 -3.2,-27.509 -13.558,-37.867 C 387.068,100.579 373.083,96.061 359.559,97.379 355.601,84.38 346.075,73.188 332.542,67.582 319.008,61.976 304.359,63.154 292.369,69.547 283.738,59.052 270.654,52.358 256.006,52.358 c -14.649,0 -27.733,6.694 -36.363,17.189 -11.99,-6.393 -26.64,-7.571 -40.173,-1.965 -13.534,5.606 -23.06,16.797 -27.017,29.797 -13.524,-1.318 -27.509,3.2 -37.867,13.558 -10.358,10.358 -14.876,24.343 -13.558,37.867 -12.999,3.958 -24.191,13.484 -29.796,27.017 -5.606,13.533 -4.428,28.183 1.965,40.173 -10.495,8.631 -17.189,21.715 -17.189,36.363 0,14.649 6.694,27.732 17.189,36.363 -6.393,11.99 -7.571,26.64 -1.965,40.173 5.606,13.534 16.797,23.06 29.796,27.017 -1.318,13.524 3.2,27.509 13.558,37.867 10.358,10.358 24.343,14.876 37.867,13.558 3.958,12.999 13.484,24.191 27.017,29.797 13.534,5.606 28.183,4.428 40.173,-1.965 8.631,10.495 21.715,17.189 36.363,17.189 14.649,0 27.733,-6.694 36.363,-17.189 11.99,6.393 26.64,7.571 40.173,1.965 13.534,-5.606 23.06,-16.798 27.017,-29.797 13.524,1.318 27.509,-3.2 37.867,-13.558 10.358,-10.358 14.876,-24.344 13.558,-37.867 12.999,-3.958 24.191,-13.484 29.796,-27.017 5.606,-13.533 4.428,-28.183 -1.965,-40.173 10.495,-8.631 17.189,-21.714 17.189,-36.363 z"
         id="path10"
         inkscape:connector-curvature="0"
         style="fill:#fdffdc;stroke-width:16" />
    </g>
    <g
       id="g18"
       style="stroke-width:16">
      <g
         id="g16"
         style="stroke-width:16">
        <path
           d="m 269.473,407.336 c -13.524,1.318 -27.509,-3.2 -37.867,-13.558 -10.358,-10.358 -14.876,-24.344 -13.558,-37.867 -12.999,-3.958 -24.191,-13.484 -29.796,-27.017 -5.606,-13.533 -4.428,-28.183 1.965,-40.173 -10.495,-8.631 -17.189,-21.715 -17.189,-36.363 0,-14.649 6.694,-27.732 17.189,-36.363 -6.393,-11.99 -7.571,-26.64 -1.965,-40.173 5.606,-13.534 16.797,-23.06 29.796,-27.017 -1.318,-13.524 3.2,-27.509 13.558,-37.867 10.358,-10.358 24.344,-14.877 37.867,-13.558 3.541,-11.632 11.552,-21.803 22.892,-27.834 -8.631,-10.494 -21.714,-17.187 -36.361,-17.187 -14.649,0 -27.733,6.694 -36.363,17.189 -11.99,-6.393 -26.64,-7.571 -40.173,-1.965 -13.533,5.606 -23.06,16.797 -27.017,29.797 -13.524,-1.318 -27.509,3.2 -37.867,13.558 -10.358,10.358 -14.876,24.343 -13.558,37.867 -12.999,3.958 -24.191,13.484 -29.796,27.017 -5.606,13.533 -4.428,28.183 1.965,40.173 -10.495,8.631 -17.189,21.715 -17.189,36.363 0,14.649 6.694,27.733 17.189,36.363 -6.393,11.99 -7.571,26.64 -1.965,40.173 5.606,13.534 16.797,23.06 29.796,27.017 -1.318,13.524 3.2,27.509 13.558,37.867 10.358,10.358 24.343,14.876 37.867,13.558 3.958,12.999 13.484,24.191 27.017,29.797 13.533,5.606 28.183,4.428 40.173,-1.965 8.631,10.495 21.715,17.189 36.363,17.189 14.648,0 27.731,-6.693 36.361,-17.187 -11.34,-6.03 -19.351,-16.202 -22.892,-27.834 z"
           id="path14"
           inkscape:connector-curvature="0"
           style="fill:#fdffbf;stroke-width:16" />
      </g>
    </g>
    <g
       id="g22"
       style="stroke-width:16">
      <path
         d="M 504.5,255.994 C 504.5,392.93 393.739,503.997 256.919,504.492 119.739,504.989 7.5,391.247 7.5,254.065 c 0,-21.026 17.045,-38.072 38.072,-38.072 h 420.857 c 21.028,0 38.074,17.048 38.072,38.075 z"
         id="path20"
         inkscape:connector-curvature="0"
         style="fill:#cff9ff;stroke-width:16" />
    </g>
    <g
       id="g26"
       style="stroke-width:16">
      <path
         d="m 152.081,254.065 c 0,-21.026 17.045,-38.072 38.072,-38.072 H 45.571 c -21.026,0 -38.072,17.045 -38.072,38.072 0,137.182 112.239,250.924 249.419,250.427 24.971,-0.09 49.068,-3.879 71.788,-10.821 C 226.747,462.232 152.081,365.95 152.081,254.065 Z"
         id="path24"
         inkscape:connector-curvature="0"
         style="fill:#b5efff;stroke-width:16" />
    </g>
    <g
       id="g30"
       style="stroke-width:16">
      <path
         d="m 14.84,314.069 h 482.819 c 4.462,-18.633 6.841,-38.075 6.841,-58.075 v -1.925 H 7.5 c 0,20.636 2.557,40.734 7.34,60 z"
         id="path28"
         inkscape:connector-curvature="0"
         style="fill:#96e8ff;stroke-width:16" />
    </g>
    <g
       id="g34"
       style="stroke-width:16">
      <path
         d="m 14.84,314.069 h 144.572 c -4.782,-19.264 -7.33,-39.365 -7.33,-60 H 7.5 c 0,20.636 2.557,40.734 7.34,60 z"
         id="path32"
         inkscape:connector-curvature="0"
         style="fill:#80dbff;stroke-width:16" />
    </g>
    <g
       id="g62"
       style="stroke-width:16">
      <g
         id="g48"
         style="stroke-width:16">
        <g
           id="g38"
           style="stroke-width:16">
          <ellipse
             cx="176.35899"
             cy="398.43399"
             rx="29.386999"
             ry="23.403"
             id="ellipse36"
             style="fill:#ff9b87;stroke-width:16" />
        </g>
        <g
           id="g42"
           style="stroke-width:16">
          <ellipse
             cx="335.64899"
             cy="398.43399"
             rx="29.386999"
             ry="23.403"
             id="ellipse40"
             style="fill:#ff9b87;stroke-width:16" />
        </g>
        <g
           id="g46"
           style="stroke-width:16">
          <path
             d="m 279.697,380.453 c 0,-14.643 -10.608,-16.019 -23.694,-16.019 -13.085,0 -23.693,1.376 -23.693,16.019 0,14.643 10.608,26.513 23.693,26.513 13.086,0 23.694,-11.871 23.694,-26.513 z"
             id="path44"
             inkscape:connector-curvature="0"
             style="fill:#595959;stroke-width:16" />
        </g>
      </g>
      <g
         id="g52"
         style="stroke-width:16">
        <path
           d="m 181.271,377.994 c -4.143,0 -7.5,-3.358 -7.5,-7.5 v -12 c 0,-4.142 3.357,-7.5 7.5,-7.5 4.143,0 7.5,3.358 7.5,7.5 v 12 c 0,4.142 -3.357,7.5 -7.5,7.5 z"
           id="path50"
           inkscape:connector-curvature="0"
           style="stroke-width:16" />
      </g>
      <g
         id="g56"
         style="stroke-width:16">
        <path
           d="m 256.004,414.465 c -17.2,0 -31.193,-15.258 -31.193,-34.013 0,-23.519 21.859,-23.519 31.193,-23.519 9.334,0 31.193,0 31.193,23.519 0,18.756 -13.993,34.013 -31.193,34.013 z m 0,-42.531 c -15.538,0 -16.193,2.611 -16.193,8.519 0,10.484 7.265,19.013 16.193,19.013 8.928,0 16.193,-8.529 16.193,-19.013 0,-5.908 -0.655,-8.519 -16.193,-8.519 z"
           id="path54"
           inkscape:connector-curvature="0"
           style="stroke-width:16" />
      </g>
      <g
         id="g60"
         style="stroke-width:16">
        <path
           d="m 330.736,377.994 c -4.143,0 -7.5,-3.358 -7.5,-7.5 v -12 c 0,-4.142 3.357,-7.5 7.5,-7.5 4.143,0 7.5,3.358 7.5,7.5 v 12 c 0,4.142 -3.357,7.5 -7.5,7.5 z"
           id="path58"
           inkscape:connector-curvature="0"
           style="stroke-width:16" />
      </g>
    </g>
    <path
       d="m 498.654,221.843 c -8.607,-8.608 -20.053,-13.349 -32.226,-13.349 h -16.597 c 3.258,-11.665 2.586,-24.175 -2.124,-35.543 -5.51,-13.304 -15.909,-23.736 -29.001,-29.308 -0.137,-14.228 -5.796,-27.828 -15.979,-38.01 C 392.544,95.45 378.946,89.791 364.716,89.655 359.146,76.562 348.713,66.163 335.409,60.653 c -13.304,-5.51 -28.033,-5.534 -41.231,-0.215 -10.157,-9.964 -23.776,-15.58 -38.176,-15.58 -14.4,0 -28.019,5.615 -38.176,15.579 -13.198,-5.318 -27.929,-5.295 -41.231,0.216 -11.075,4.588 -20.149,12.571 -26.096,22.667 L 75.23,8.048 c -10.723,-10.723 -28.17,-10.723 -38.893,0 -5.564,5.565 -8.233,12.942 -8.021,20.249 -0.272,-0.008 -0.543,-0.02 -0.817,-0.02 -7.346,0 -14.252,2.86 -19.446,8.055 -10.722,10.722 -10.722,28.168 0,38.891 l 74.516,74.516 c -8.016,5.833 -14.371,13.798 -18.271,23.211 -4.723,11.402 -5.398,23.886 -2.135,35.543 H 45.571 C 20.443,208.494 0,228.937 0,254.065 c 0,34.785 6.913,68.645 20.546,100.637 13.168,30.9 31.967,58.646 55.873,82.466 48.452,48.276 112.193,74.825 179.598,74.825 0.306,0 0.624,0 0.93,-10e-4 68.182,-0.247 132.243,-26.985 180.383,-75.29 C 485.481,388.386 512,324.209 512,255.994 v -1.924 c 10e-4,-12.174 -4.738,-23.619 -13.346,-32.227 z M 18.661,46.939 c 2.36,-2.361 5.5,-3.661 8.839,-3.661 3.339,0 6.478,1.3 8.838,3.661 l 19.203,19.203 c 2.93,2.929 7.678,2.929 10.607,0 2.929,-2.929 2.929,-7.678 0,-10.606 L 46.945,36.333 c -4.873,-4.874 -4.873,-12.805 0,-17.678 4.873,-4.874 12.805,-4.873 17.678,0 l 72.128,72.128 c -8.716,1.803 -16.892,5.735 -23.827,11.528 L 87.361,76.749 c -2.93,-2.929 -7.678,-2.929 -10.607,0 -2.929,2.929 -2.929,7.678 0,10.606 l 26.067,26.066 c -5.304,7.74 -8.499,16.695 -9.305,26.05 L 18.661,64.617 c -4.874,-4.874 -4.874,-12.804 0,-17.678 z m 59.495,131.752 c 4.545,-10.971 13.676,-19.25 25.053,-22.713 3.417,-1.041 5.627,-4.347 5.28,-7.902 -1.154,-11.836 3,-23.44 11.396,-31.837 8.396,-8.396 20.003,-12.549 31.837,-11.396 3.543,0.347 6.862,-1.862 7.902,-5.281 3.463,-11.376 11.741,-20.507 22.712,-25.051 10.969,-4.543 23.28,-3.941 33.775,1.654 3.152,1.681 7.053,0.905 9.321,-1.854 7.554,-9.185 18.696,-14.453 30.57,-14.453 11.874,0 23.017,5.268 30.57,14.453 2.269,2.759 6.169,3.535 9.321,1.854 10.496,-5.596 22.804,-6.198 33.775,-1.654 10.971,4.544 19.249,13.675 22.712,25.051 1.04,3.417 4.349,5.623 7.902,5.281 11.831,-1.154 23.44,3 31.836,11.396 8.397,8.397 12.552,20.001 11.397,31.837 -0.347,3.555 1.863,6.862 5.28,7.902 11.377,3.463 20.508,11.742 25.052,22.713 3.964,9.569 3.986,20.255 0.175,29.803 H 77.975 c -3.817,-9.549 -3.794,-20.206 0.181,-29.803 z m -32.585,44.803 h 420.857 c 8.166,0 15.844,3.18 21.618,8.955 3.962,3.963 6.702,8.822 8.032,14.12 H 345.736 c -4.143,0 -7.5,3.358 -7.5,7.5 0,4.142 3.357,7.5 7.5,7.5 h 151.193 c -0.352,15.394 -2.17,30.435 -5.301,45 H 20.713 c -3.24,-14.67 -5.121,-29.719 -5.586,-45 h 300.609 c 4.143,0 7.5,-3.358 7.5,-7.5 0,-4.142 -3.357,-7.5 -7.5,-7.5 H 15.933 C 19.284,233.324 31.3,223.494 45.571,223.494 Z m 211.321,273.498 c -0.292,10e-4 -0.582,10e-4 -0.873,10e-4 -63.403,0 -123.396,-24.999 -169.012,-70.451 C 57.116,396.759 35.887,360.761 24.542,321.568 H 487.909 C 459.317,422.325 366.576,496.595 256.892,496.992 Z"
       id="path64"
       inkscape:connector-curvature="0"
       style="stroke-width:16" />
  </g>
</svg>
