<?xml version="1.0" encoding="UTF-8" standalone="no"?>
<!-- Generator: Adobe Illustrator 19.0.0, SVG Export Plug-In . SVG Version: 6.00 Build 0)  -->

<svg
   xmlns:dc="http://purl.org/dc/elements/1.1/"
   xmlns:cc="http://creativecommons.org/ns#"
   xmlns:rdf="http://www.w3.org/1999/02/22-rdf-syntax-ns#"
   xmlns:svg="http://www.w3.org/2000/svg"
   xmlns="http://www.w3.org/2000/svg"
   xmlns:sodipodi="http://sodipodi.sourceforge.net/DTD/sodipodi-0.dtd"
   xmlns:inkscape="http://www.inkscape.org/namespaces/inkscape"
   version="1.1"
   id="Capa_1"
   x="0px"
   y="0px"
   viewBox="0 0 27.5625 32"
   xml:space="preserve"
   sodipodi:docname="pub.svg"
   width="27.5625"
   height="32"
   inkscape:version="0.92.5 (0.92.5+68)"><metadata
   id="metadata53"><rdf:RDF><cc:Work
       rdf:about=""><dc:format>image/svg+xml</dc:format><dc:type
         rdf:resource="http://purl.org/dc/dcmitype/StillImage" /><dc:title></dc:title></cc:Work></rdf:RDF></metadata><defs
   id="defs51" /><sodipodi:namedview
   pagecolor="#ffffff"
   bordercolor="#666666"
   borderopacity="1"
   objecttolerance="10"
   gridtolerance="10"
   guidetolerance="10"
   inkscape:pageopacity="0"
   inkscape:pageshadow="2"
   inkscape:window-width="1366"
   inkscape:window-height="700"
   id="namedview49"
   showgrid="false"
   fit-margin-top="0"
   fit-margin-left="0"
   fit-margin-right="0"
   fit-margin-bottom="0"
   inkscape:zoom="0.4609375"
   inkscape:cx="220.5"
   inkscape:cy="256"
   inkscape:window-x="0"
   inkscape:window-y="0"
   inkscape:window-maximized="1"
   inkscape:current-layer="Capa_1" />
<path
   style="fill:#95e7ee;stroke-width:1"
   d="M 20.680625,7.84062 3.1875,7.875 v 21 c 0,1.38062 1.119375,2.5 2.5,2.5 h 12.5 c 1.380625,0 2.5,-1.11938 2.5,-2.5 V 7.85312 Z"
   id="path2"
   inkscape:connector-curvature="0" />
<polygon
   style="fill:#fec652;stroke-width:16"
   points="86.5,462 366.5,462 366.5,125.65 366.39,125.45 86.5,126 "
   id="polygon4"
   transform="matrix(0.0625,0,0,0.0625,-2.21875,0)" />
<path
   style="fill:#95e7ee;stroke-width:1"
   d="M 26.9375,13.1875 V 23.875 c 0,1.38062 -1.119375,2.5 -2.5,2.5 h -3.75 v -2.5 h 3.75 V 13.1875 h -3.75 v -2.5 h 3.75 c 1.380625,0 2.5,1.11937 2.5,2.5 z"
   id="path6"
   inkscape:connector-curvature="0" />
<path
   style="fill:#ffe5cb;stroke-width:1"
   d="M 21.871875,5.10687 C 22.3475,7.21769 20.170187,8.9065 18.125,7.86625 v 5.27687 c 0,0.69 -0.559375,1.25 -1.25,1.25 -0.690625,0 -1.25,-0.56 -1.25,-1.25 v -2.5 c 0,-0.86312 0.03125,-2.45562 -2.75,-2.45562 -0.225625,0 -0.44125,0.0913 -0.5975,0.25312 -0.568125,0.5875 -1.364375,0.9525 -2.24625,0.9525 -0.853125,0 -1.62625,-0.34187 -2.19,-0.89625 C 7.639375,8.29875 7.3675,8.1875 7.07125,8.1875 c -0.238125,0 -0.455625,0.13562 -0.56,0.34937 C 5.9075,9.77312 4.653125,10.63062 3.1875,10.64312 v 4.98625 c -0.03125,0.70375 -0.590625,1.26375 -1.28125,1.26375 -0.690625,0 -1.28125,-0.56 -1.28125,-1.25 0,-0.81793 0,-6.63256 0,-7.5 C 0.625,5.17 3.250625,2.80313 6.2975,3.19375 7.150625,1.67313 8.783125,0.625 10.65625,0.625 c 1.48125,0 2.811875,0.66187 3.7275,1.68563 0.3775,-0.23876 0.825,-0.37313 1.30375,-0.37313 1.090625,0 2.018125,0.69812 2.359375,1.67187 0.536875,-0.36 1.22125,-0.51749 1.943125,-0.3625 0.9175,0.19625 1.67625,0.945 1.881875,1.86 z"
   id="path8"
   inkscape:connector-curvature="0" />
<path
   d="m 15.65625,28.20562 c -0.345,0 -0.625,0.28001 -0.625,0.625 0,0.34501 0.28,0.625 0.625,0.625 0.345,0 0.625,-0.27999 0.625,-0.625 0,-0.34499 -0.28,-0.625 -0.625,-0.625 z"
   id="path10"
   inkscape:connector-curvature="0"
   style="stroke-width:1" />
<path
   d="m 6.875,12.51812 c -0.345188,0 -0.625,0.27982 -0.625,0.625 v 11.9375 c 0,0.34519 0.279812,0.625 0.625,0.625 0.345188,0 0.625,-0.27981 0.625,-0.625 v -11.9375 c 0,-0.34518 -0.279812,-0.625 -0.625,-0.625 z"
   id="path12"
   inkscape:connector-curvature="0"
   style="stroke-width:1" />
<path
   d="m 11.875,12.51812 c -0.345188,0 -0.625,0.27982 -0.625,0.625 v 11.9375 c 0,0.34519 0.279812,0.625 0.625,0.625 0.345188,0 0.625,-0.27981 0.625,-0.625 v -11.9375 c 0,-0.34518 -0.279812,-0.625 -0.625,-0.625 z"
   id="path14"
   inkscape:connector-curvature="0"
   style="stroke-width:1" />
<path
   d="m 5.6875,32 h 12.5 c 1.723125,0 3.125,-1.40188 3.125,-3.125 V 27 h 3.125 c 1.723125,0 3.125,-1.40188 3.125,-3.125 V 13.1875 c 0,-1.72312 -1.401875,-3.125 -3.125,-3.125 h -3.125 V 8.17131 C 22.292187,7.43687 22.757812,6.1955 22.481687,4.96981 22.223375,3.82044 21.274625,2.88244 20.121188,2.63575 19.508,2.50419 18.890438,2.55075 18.32775,2.76469 17.7635,1.87513 16.772625,1.3125 15.6875,1.3125 c -0.409,0 -0.808688,0.0793 -1.17825,0.23194 C 13.463125,0.55762 12.083937,0 10.65625,0 8.76775,0 7.0065,0.96206 5.966875,2.53619 2.7,2.35544 0,4.94725 0,8.14312 v 7.5 c 0,1.03388 0.855125,1.875 1.90625,1.875 0.230562,0 0.4515,-0.0419 0.65625,-0.11831 V 28.875 c 0,1.72312 1.401875,3.125 3.125,3.125 z m 12.5,-1.25 h -12.5 C 4.87275,30.75 4.178,30.22744 3.92,29.5 h 9.236875 c 0.345187,0 0.625,-0.27981 0.625,-0.625 0,-0.34519 -0.279813,-0.625 -0.625,-0.625 H 3.8125 V 15.62937 11.21913 C 5.216437,11.00719 6.432125,10.123 7.07125,8.81256 c 0.130375,0 0.24525,0.0451 0.331812,0.13007 0.705375,0.69362 1.63875,1.07556 2.628188,1.07556 1.0255,0 1.982813,-0.40594 2.695937,-1.14344 0.03813,-0.0395 0.09206,-0.0622 0.147813,-0.0622 0.972937,0 1.609562,0.20781 1.892313,0.61756 C 15.000375,9.76793 15.000187,10.2373 15,10.61449 v 2.52869 c 0,0.81475 0.522562,1.5095 1.25,1.7675 v 10.17 c 0,0.34519 0.279812,0.625 0.625,0.625 0.345188,0 0.625,-0.27981 0.625,-0.625 V 14.91061 c 0.727437,-0.258 1.25,-0.95268 1.25,-1.7675 v -4.404 c 0.437812,0.0874 0.884625,0.0879 1.3125,4.4e-4 V 28.25 h -1.906875 c -0.345188,0 -0.625,0.27981 -0.625,0.625 0,0.34519 0.279812,0.61875 0.625,0.61875 H 19.955 C 19.697,30.22119 19.00225,30.75 18.1875,30.75 Z m 3.125,-16.9375 h 2.5 V 23.25 h -2.5 z m 3.125,-2.5 c 1.033875,0 1.875,0.84112 1.875,1.875 V 23.875 c 0,1.03388 -0.841125,1.875 -1.875,1.875 h -3.125 V 24.5 h 3.125 c 0.345188,0 0.625,-0.27981 0.625,-0.625 V 13.1875 c 0,-0.34519 -0.279812,-0.625 -0.625,-0.625 h -3.125 v -1.25 z M 1.90625,16.26812 c -0.355688,0 -0.65625,-0.28625 -0.65625,-0.625 v -7.5 c 0,-2.41224 1.973875,-4.36575 4.400438,-4.36575 0.188562,0 0.378124,0.012 0.567562,0.0363 0.252812,0.0324 0.499875,-0.0919 0.624562,-0.31413 0.7785,-1.38756 2.239813,-2.24956 3.813688,-2.24956 1.233125,0 2.422,0.53844 3.261687,1.47731 0.2035,0.22763 0.54175,0.27488 0.799938,0.11156 C 15.003687,2.65804 15.339,2.56248 15.6875,2.56248 c 0.795625,0 1.50675,0.50381 1.769562,1.25356 0.06394,0.1825 0.208813,0.32519 0.392313,0.38632 0.183437,0.0611 0.384938,0.0339 0.545562,-0.0739 0.426,-0.28563 0.945875,-0.38169 1.464313,-0.27044 0.675,0.14438 1.251875,0.71425 1.402875,1.38619 0.35575,1.579 -1.262812,2.87425 -2.853813,2.06494 -0.19375,-0.0986 -0.42475,-0.0894 -0.610125,0.0243 -0.185312,0.11363 -0.298249,0.31537 -0.298249,0.53275 v 5.27687 c 0,0.34463 -0.280376,0.625 -0.625,0.625 -0.344626,0 -0.625,-0.28037 -0.625,-0.625 V 10.61482 C 16.250125,10.12258 16.250437,9.37864 15.796125,8.72014 15.266187,7.95195 14.283375,7.56245 12.875,7.56245 c -0.393125,0 -0.77475,0.16181 -1.046813,0.44369 C 11.353062,8.49751 10.714875,8.76807 10.03125,8.76807 9.371687,8.76807 8.749562,8.51351 8.279063,8.05076 7.95825,7.73583 7.529313,7.56245 7.07125,7.56245 c -0.473688,0 -0.913937,0.27481 -1.121625,0.70013 -0.523875,1.07274 -1.584375,1.74543 -2.7675,1.75556 -0.343063,0.003 -0.619687,0.28187 -0.619687,0.625 v 4.97031 c -0.022,0.36806 -0.308188,0.65462 -0.656188,0.65462 z"
   id="path16"
   inkscape:connector-curvature="0"
   style="stroke-width:1" />
<g
   id="g18"
   transform="matrix(0.0625,0,0,0.0625,-2.21875,0)"
   style="stroke-width:16">
</g>
<g
   id="g20"
   transform="matrix(0.0625,0,0,0.0625,-2.21875,0)"
   style="stroke-width:16">
</g>
<g
   id="g22"
   transform="matrix(0.0625,0,0,0.0625,-2.21875,0)"
   style="stroke-width:16">
</g>
<g
   id="g24"
   transform="matrix(0.0625,0,0,0.0625,-2.21875,0)"
   style="stroke-width:16">
</g>
<g
   id="g26"
   transform="matrix(0.0625,0,0,0.0625,-2.21875,0)"
   style="stroke-width:16">
</g>
<g
   id="g28"
   transform="matrix(0.0625,0,0,0.0625,-2.21875,0)"
   style="stroke-width:16">
</g>
<g
   id="g30"
   transform="matrix(0.0625,0,0,0.0625,-2.21875,0)"
   style="stroke-width:16">
</g>
<g
   id="g32"
   transform="matrix(0.0625,0,0,0.0625,-2.21875,0)"
   style="stroke-width:16">
</g>
<g
   id="g34"
   transform="matrix(0.0625,0,0,0.0625,-2.21875,0)"
   style="stroke-width:16">
</g>
<g
   id="g36"
   transform="matrix(0.0625,0,0,0.0625,-2.21875,0)"
   style="stroke-width:16">
</g>
<g
   id="g38"
   transform="matrix(0.0625,0,0,0.0625,-2.21875,0)"
   style="stroke-width:16">
</g>
<g
   id="g40"
   transform="matrix(0.0625,0,0,0.0625,-2.21875,0)"
   style="stroke-width:16">
</g>
<g
   id="g42"
   transform="matrix(0.0625,0,0,0.0625,-2.21875,0)"
   style="stroke-width:16">
</g>
<g
   id="g44"
   transform="matrix(0.0625,0,0,0.0625,-2.21875,0)"
   style="stroke-width:16">
</g>
<g
   id="g46"
   transform="matrix(0.0625,0,0,0.0625,-2.21875,0)"
   style="stroke-width:16">
</g>
</svg>