<?xml version="1.0" encoding="UTF-8" standalone="no"?>
<svg
   xmlns:dc="http://purl.org/dc/elements/1.1/"
   xmlns:cc="http://creativecommons.org/ns#"
   xmlns:rdf="http://www.w3.org/1999/02/22-rdf-syntax-ns#"
   xmlns:svg="http://www.w3.org/2000/svg"
   xmlns="http://www.w3.org/2000/svg"
   xmlns:sodipodi="http://sodipodi.sourceforge.net/DTD/sodipodi-0.dtd"
   xmlns:inkscape="http://www.inkscape.org/namespaces/inkscape"
   id="Layer_1"
   enable-background="new 0 0 512.326 512.326"
   height="32"
   viewBox="0 0 31.971882 32.020375"
   width="31.951538"
   version="1.1"
   sodipodi:docname="schoolfood.svg"
   inkscape:version="0.92.5 (0.92.5+68)">
  <metadata
     id="metadata17">
    <rdf:RDF>
      <cc:Work
         rdf:about="">
        <dc:format>image/svg+xml</dc:format>
        <dc:type
           rdf:resource="http://purl.org/dc/dcmitype/StillImage" />
        <dc:title />
      </cc:Work>
    </rdf:RDF>
  </metadata>
  <defs
     id="defs15" />
  <sodipodi:namedview
     pagecolor="#ffffff"
     bordercolor="#666666"
     borderopacity="1"
     objecttolerance="10"
     gridtolerance="10"
     guidetolerance="10"
     inkscape:pageopacity="0"
     inkscape:pageshadow="2"
     inkscape:window-width="1366"
     inkscape:window-height="700"
     id="namedview13"
     showgrid="false"
     fit-margin-top="0"
     fit-margin-left="0"
     fit-margin-right="0"
     fit-margin-bottom="0"
     inkscape:zoom="10.429825"
     inkscape:cx="19.586761"
     inkscape:cy="10.126611"
     inkscape:window-x="0"
     inkscape:window-y="0"
     inkscape:window-maximized="1"
     inkscape:current-layer="g10" />
  <g
     id="g10"
     transform="matrix(0.06250008,0,0,0.06250008,-0.02427462,-1.3865868e-5)"
     style="stroke-width:15.99997902">
    <ellipse
       style="opacity:1;fill:#2bb47c;fill-opacity:1;stroke:none;stroke-width:32.02033234;stroke-linejoin:miter;stroke-miterlimit:4;stroke-dasharray:none;stroke-dashoffset:0;stroke-opacity:0.98678415"
       id="path1168-3"
       cx="258.4014"
       cy="256.75522"
       rx="248.64073"
       ry="247.44804" />
    <ellipse
       style="opacity:1;fill:#b42424;fill-opacity:1;stroke:none;stroke-width:32.02033234;stroke-linejoin:miter;stroke-miterlimit:4;stroke-dasharray:none;stroke-dashoffset:0;stroke-opacity:0.98678415"
       id="path1168"
       cx="256.55109"
       cy="257.12286"
       rx="167.157"
       ry="163.77521" />
    <rect
       style="opacity:1;fill:#df5727;fill-opacity:1;stroke:none;stroke-width:32.02033234;stroke-linejoin:miter;stroke-miterlimit:4;stroke-dasharray:none;stroke-dashoffset:0;stroke-opacity:0.98678415"
       id="rect926-3-6-7-5"
       width="43.736813"
       height="44.439434"
       x="214.33438"
       y="143.16147"
       transform="rotate(-1.5614908)" />
    <rect
       style="opacity:1;fill:#df5727;fill-opacity:1;stroke:none;stroke-width:32.02033234;stroke-linejoin:miter;stroke-miterlimit:4;stroke-dasharray:none;stroke-dashoffset:0;stroke-opacity:0.98678415"
       id="rect926-3-6-7-5-3"
       width="43.736816"
       height="44.439438"
       x="351.30261"
       y="118.10258"
       transform="rotate(-1.5614908)" />
    <rect
       style="opacity:1;fill:#df5727;fill-opacity:1;stroke:none;stroke-width:32.02033234;stroke-linejoin:miter;stroke-miterlimit:4;stroke-dasharray:none;stroke-dashoffset:0;stroke-opacity:0.98678415"
       id="rect926-3-6-7-5-3-5"
       width="43.73682"
       height="44.439442"
       x="336.53806"
       y="209.06871"
       transform="rotate(-1.5614908)" />
    <rect
       style="opacity:1;fill:#df5727;fill-opacity:1;stroke:none;stroke-width:32.02033234;stroke-linejoin:miter;stroke-miterlimit:4;stroke-dasharray:none;stroke-dashoffset:0;stroke-opacity:0.98678415"
       id="rect926-3-6-7-5-3-5-6"
       width="43.736824"
       height="44.439445"
       x="370.18237"
       y="298.66721"
       transform="rotate(-1.5614908)" />
    <rect
       style="opacity:1;fill:#df5727;fill-opacity:1;stroke:none;stroke-width:32.02033234;stroke-linejoin:miter;stroke-miterlimit:4;stroke-dasharray:none;stroke-dashoffset:0;stroke-opacity:0.98678415"
       id="rect926-3-6-7-5-3-5-2"
       width="43.736824"
       height="44.439445"
       x="216.4687"
       y="416.94165"
       transform="rotate(-1.5614908)" />
    <rect
       style="opacity:1;fill:#df5727;fill-opacity:1;stroke:none;stroke-width:32.02032852;stroke-linejoin:miter;stroke-miterlimit:4;stroke-dasharray:none;stroke-dashoffset:0;stroke-opacity:0.98678415"
       id="rect926-3-9-7"
       width="46.312538"
       height="88.502533"
       x="179.47743"
       y="231.19774"
       transform="rotate(-13.803428)" />
    <rect
       style="opacity:1;fill:#df5727;fill-opacity:1;stroke:none;stroke-width:32.02032852;stroke-linejoin:miter;stroke-miterlimit:4;stroke-dasharray:none;stroke-dashoffset:0;stroke-opacity:0.98678415"
       id="rect926-3-9-7-0"
       width="46.312542"
       height="88.502533"
       x="-31.827271"
       y="-379.8161"
       transform="rotate(110.08173)" />
    <rect
       style="opacity:1;fill:#df5727;fill-opacity:1;stroke:none;stroke-width:32.02032852;stroke-linejoin:miter;stroke-miterlimit:4;stroke-dasharray:none;stroke-dashoffset:0;stroke-opacity:0.98678415"
       id="rect926-3-9-7-9"
       width="46.312542"
       height="88.502533"
       x="57.961548"
       y="438.22659"
       transform="rotate(-47.688234)" />
    <rect
       style="opacity:1;fill:#df5727;fill-opacity:1;stroke:none;stroke-width:32.02032852;stroke-linejoin:miter;stroke-miterlimit:4;stroke-dasharray:none;stroke-dashoffset:0;stroke-opacity:0.98678415"
       id="rect926-3-9-7-9-3"
       width="44.567204"
       height="85.167213"
       x="-352.58313"
       y="277.36954"
       transform="rotate(-93.022906)" />
    <rect
       style="opacity:1;fill:#df5727;fill-opacity:1;stroke:none;stroke-width:32.02032852;stroke-linejoin:miter;stroke-miterlimit:4;stroke-dasharray:none;stroke-dashoffset:0;stroke-opacity:0.98678415"
       id="rect926-3-9-7-9-3-6"
       width="44.567204"
       height="85.167213"
       x="-521.6496"
       y="-35.902973"
       transform="rotate(-126.66782)" />
    <rect
       style="opacity:1;fill:#df5727;fill-opacity:1;stroke:none;stroke-width:32.02033234;stroke-linejoin:miter;stroke-miterlimit:4;stroke-dasharray:none;stroke-dashoffset:0;stroke-opacity:0.98678415"
       id="rect926-3-6-7"
       width="43.736809"
       height="44.43943"
       x="113.39648"
       y="129.15887"
       transform="rotate(-1.5614952)" />
    <rect
       style="opacity:1;fill:#df5727;fill-opacity:1;stroke:none;stroke-width:32.02032852;stroke-linejoin:miter;stroke-miterlimit:4;stroke-dasharray:none;stroke-dashoffset:0;stroke-opacity:0.98678415"
       id="rect926-3-9-2"
       width="46.312538"
       height="88.502533"
       x="178.06371"
       y="76.461357"
       transform="rotate(30.868812)" />
    <rect
       style="opacity:1;fill:#df5727;fill-opacity:1;stroke:none;stroke-width:32.02033234;stroke-linejoin:miter;stroke-miterlimit:4;stroke-dasharray:none;stroke-dashoffset:0;stroke-opacity:0.98678415"
       id="rect926-3-6"
       width="46.312531"
       height="47.056534"
       x="187.53218"
       y="273.89212" />
    <rect
       style="opacity:1;fill:#df5727;fill-opacity:1;stroke:none;stroke-width:32.02033234;stroke-linejoin:miter;stroke-miterlimit:4;stroke-dasharray:none;stroke-dashoffset:0;stroke-opacity:0.98678415"
       id="rect926-3-9"
       width="46.312538"
       height="88.502541"
       x="-151.68556"
       y="233.55785"
       transform="rotate(-55.809404)" />
    <rect
       style="opacity:1;fill:#df5727;fill-opacity:1;stroke:none;stroke-width:32.02083588;stroke-linejoin:miter;stroke-miterlimit:4;stroke-dasharray:none;stroke-dashoffset:0;stroke-opacity:0.98678415"
       id="rect926-3-9-1"
       width="44.312664"
       height="128.10748"
       x="-192.00975"
       y="286.11374"
       transform="matrix(0.67444456,-0.73832549,0.73295284,0.68027945,0,0)" />
    <path
       d="M 437.417,74.926 C 277.365,-85.687 -0.011,29.176 0.399,255.948 c -1.6,175.624 178.108,301.499 342.681,241.009 27.609,-9.91 53.165,-24.476 75.957,-43.291 3.194,-2.637 3.646,-7.364 1.01,-10.559 -2.638,-3.194 -7.365,-3.646 -10.559,-1.009 -43.465,35.88 -96.403,54.846 -153.091,54.846 C 126.864,499.618 12.713,385.487 15.399,255.943 12.728,126.413 126.852,12.26 256.399,14.947 c 206.307,-0.62 317.477,246.149 180.761,400.377 -2.741,3.102 -2.45,7.842 0.654,10.585 3.103,2.743 7.843,2.452 10.587,-0.651 88.755,-96.966 84.001,-259.103 -10.984,-350.332 z"
       id="path2"
       inkscape:connector-curvature="0"
       style="stroke-width:15.99997902" />
    <path
       d="m 131.476,84.112 c 1.484,0 2.984,-0.44 4.293,-1.355 18.473,-12.927 38.763,-22.722 60.308,-29.113 3.971,-1.178 6.235,-5.352 5.058,-9.323 -1.178,-3.971 -5.354,-6.235 -9.323,-5.058 -23.096,6.851 -44.845,17.35 -64.642,31.204 -5.54,3.876 -2.878,13.645 4.306,13.645 z"
       id="path4"
       inkscape:connector-curvature="0"
       style="stroke-width:15.99997902" />
    <path
       d="m 452.754,304.611 c 12.862,-13.859 11.935,-36.093 -1.821,-48.861 l -18.195,-16.887 c -2.881,-30.077 -13.382,-58.805 -30.561,-83.628 16.154,-17.397 9.196,-47.362 -13.082,-55.798 L 309.61,66.639 c -15.373,-6.344 -32.75,-0.741 -41.762,12.495 -42.3,-2.691 -84.525,9.883 -118.33,35.49 -15.786,-4.484 -33.268,3.213 -40.5,17.924 l -40.193,76.008 c -8.169,14.744 -3.401,34.754 10.427,44.265 -0.328,18.954 2.365,37.979 8.026,56.076 -15.288,13.543 -15.286,38.348 0.032,51.823 l 62.854,58.669 c 12.087,11.283 30.896,12.352 44.126,2.543 7.211,2.698 14.622,4.917 22.128,6.65 -4.04,29.686 29.558,50.214 54.101,33.018 0,0 71.174,-49.936 71.174,-49.936 1.119,-1.196 2.431,-2.068 3.938,-2.616 27.896,-16.292 50.736,-39.809 66.229,-68.092 11.692,-3.798 20.882,-14.072 23.263,-26.164 6.729,-1.532 12.856,-5.037 17.631,-10.181 z m -5.782,-24.249 c 0.298,7.963 -4.939,15.99 -12.37,18.922 -5.311,-20.052 -24.664,-27.26 -43.476,-25.165 l -19.873,-18.445 c 13.701,-3.082 24.562,-14.774 26.633,-28.692 l 42.842,39.763 c 3.832,3.556 6.05,8.392 6.244,13.617 z m -72.916,49.146 -58.325,3.841 c -10.757,0.704 -20.108,-7.475 -20.818,-18.245 -0.709,-10.77 7.477,-20.109 18.246,-20.818 l 58.322,-3.841 c -7.164,12.075 -6.117,28.004 2.575,39.063 z m 8.271,-113.545 c 3.006,10.11 -2.401,21.329 -12.652,24.622 -24.991,6.993 -36.354,-28.414 -11.97,-37.274 10.009,-3.212 21.407,2.644 24.622,12.652 z m 13.9,-81.9 c -2.109,17.458 -23.774,22.913 -34.811,9.815 -10.77,-13.486 0.565,-33.724 17.675,-31.555 10.605,1.255 18.393,11.135 17.136,21.74 z m -92.338,-53.558 54.025,22.292 c -11.751,7.687 -17.847,22.425 -14.927,36.191 l -54.032,-22.295 c -23.593,-10.799 -9.407,-45.171 14.934,-36.188 z m -174.463,50.904 c 8.966,-5.778 21.295,-3.09 27.057,5.85 13.221,22.331 -18.04,42.468 -32.906,21.206 -5.787,-8.976 -3.127,-21.27 5.849,-27.056 z m -47.342,84.159 27.321,-51.666 c 6.585,12.52 20.574,19.89 34.618,18.28 l -19.146,36.207 c -10.837,4.149 -19.259,14.106 -21.528,25.495 -15.672,3.267 -28.896,-13.887 -21.265,-28.316 z m 46.768,113.29 c 5.335,16.409 -12.399,31.37 -27.65,23.317 -9.484,-4.906 -13.297,-16.896 -8.388,-26.38 7.742,-15.432 30.812,-13.136 36.038,3.063 z m 45.576,84.818 c -5.224,0.191 -10.208,-1.686 -14.03,-5.253 l -42.73,-39.885 c 13.709,-3.057 24.602,-14.696 26.714,-28.617 l 42.729,39.883 c 12.69,11.689 4.555,33.425 -12.683,33.872 z m 78.186,39.094 c -10.729,1.072 -20.352,-6.786 -21.428,-17.525 -1.332,-25.843 35.239,-29.68 38.952,-3.903 1.078,10.738 -6.785,20.351 -17.524,21.428 z m 32.614,-19.817 c -0.147,-14.038 -9.321,-27.108 -22.486,-32.047 l 47.848,-33.57 c 8.743,-6.133 21.132,-3.962 27.266,4.782 6.135,8.741 3.961,21.132 -4.78,27.265 z m 71.176,-49.324 c 0.592,-27.651 -31.844,-44.555 -54.43,-28.572 0,0 -71.174,49.936 -71.174,49.936 -3.462,2.428 -6.795,5.932 -9.073,9.415 -5.778,-1.259 -11.496,-2.846 -17.106,-4.734 6.73,-13.365 4.202,-30.121 -7.276,-40.835 l -63.56,-59.326 c -8.586,-8.024 -21.773,-11.183 -33.062,-7.962 -4.04,-13.812 -6.218,-28.122 -6.478,-42.643 3.159,0.495 6.322,0.532 9.487,0.112 2.081,8.369 7.131,15.562 14.353,20.381 l 71.545,47.737 c 10.338,7.288 24.312,8.334 35.636,2.574 23.006,-11.381 25.359,-45.382 3.731,-59.419 -0.117,-0.13 -37.824,-25.232 -37.992,-25.365 -8.065,-5.382 -16.393,7.095 -8.326,12.478 l 14.078,9.393 c -13.033,5.224 -21.894,18.502 -21.726,32.566 l -48.622,-32.442 c -20.889,-15.326 -0.469,-46.098 21.73,-32.565 8.068,5.381 16.391,-7.096 8.324,-12.478 -4.245,-2.833 -8.897,-4.589 -13.635,-5.353 l 27.765,-52.506 c 7.104,-13.428 4.222,-30.795 -6.774,-41.256 28.667,-20 63.438,-30.114 98.351,-28.888 -2.096,15.218 6.218,30.557 21.064,36.683 l 80.371,33.164 c 8.179,3.383 18.048,3.384 26.238,0.048 12.29,17.76 20.839,37.705 25.25,58.715 l -27.887,-25.883 c -8.989,-8.338 -22.417,-11.322 -34.088,-7.574 -24.595,7.898 -31.979,40.605 -12.953,58.256 l 30.371,28.189 -58.364,3.844 c -19.022,1.253 -33.479,17.749 -32.227,36.772 1.239,18.792 17.994,33.456 36.771,32.227 l 76.332,-5.027 c -9.875,15.43 -22.253,29.062 -36.644,40.338 z M 192.148,307.767 c -4.841,-9.52 -0.947,-21.479 8.573,-26.321 23.558,-10.878 40.412,22.268 17.746,34.895 -9.478,4.821 -21.554,0.794 -26.319,-8.574 z m 226.707,8.783 c -4.658,9.736 -16.366,13.869 -26.104,9.212 -22.857,-12.278 -7.033,-45.402 16.893,-35.316 9.736,4.657 13.869,16.368 9.211,26.104 z"
       id="path6"
       inkscape:connector-curvature="0"
       style="stroke-width:15.99997902" />
    <path
       d="m 302.386,230.046 c -0.178,-0.491 -26.619,-82.688 -26.807,-83.094 -3.807,-11.326 -13.375,-20.388 -25.904,-22.929 -25.866,-5.605 -48.621,20.643 -39.487,45.396 0,0 26.383,81.843 26.383,81.843 4.286,14.04 18.275,24.142 32.869,23.983 22.961,0.351 40.393,-23.378 32.946,-45.199 z M 223.62,154.018 c 2.101,-10.362 12.819,-17.373 23.074,-15.293 25.222,6.121 17.817,42.557 -7.781,38.367 -10.577,-2.146 -17.439,-12.496 -15.293,-23.074 z m 36.932,104.056 c -4.653,-2.384 -8.1,-6.438 -9.703,-11.415 l -17.931,-55.625 c 13.457,3.992 28.641,-0.886 37.256,-12.02 l 17.935,55.633 c 5.401,16.389 -12.279,31.421 -27.557,23.427 z"
       id="path8"
       inkscape:connector-curvature="0"
       style="stroke-width:15.99997902" />
    <path
       style="opacity:1;fill:#ff0000;fill-opacity:1;stroke:none;stroke-width:2;stroke-linejoin:miter;stroke-miterlimit:4;stroke-dasharray:none;stroke-dashoffset:0;stroke-opacity:0.98678415"
       d=""
       id="path826"
       inkscape:connector-curvature="0"
       transform="matrix(16.010167,0,0,16.010167,0.38839342,2.218536e-4)" />
    <path
       style="opacity:1;fill:#ff0000;fill-opacity:1;stroke:none;stroke-width:2;stroke-linejoin:miter;stroke-miterlimit:4;stroke-dasharray:none;stroke-dashoffset:0;stroke-opacity:0.98678415"
       d=""
       id="path836"
       inkscape:connector-curvature="0"
       transform="matrix(16.010167,0,0,16.010167,0.38839342,2.218536e-4)" />
    <path
       style="opacity:1;fill:#ff0000;fill-opacity:1;stroke:none;stroke-width:2;stroke-linejoin:miter;stroke-miterlimit:4;stroke-dasharray:none;stroke-dashoffset:0;stroke-opacity:0.98678415"
       d=""
       id="path838"
       inkscape:connector-curvature="0"
       transform="matrix(16.010167,0,0,16.010167,0.38839342,2.218536e-4)" />
    <path
       style="opacity:1;fill:#df5727;fill-opacity:1;stroke:none;stroke-width:2;stroke-linejoin:miter;stroke-miterlimit:4;stroke-dasharray:none;stroke-dashoffset:0;stroke-opacity:0.98678415"
       d="m 24.516125,20.302864 c -0.295387,-0.145594 -0.537737,-0.443699 -0.62541,-0.769293 -0.08469,-0.314533 -0.04103,-0.543133 0.176699,-0.925149 0.171264,-0.300487 0.602454,-0.565834 0.919481,-0.565834 0.433871,0 0.908282,0.298752 1.12077,0.705785 0.148127,0.283745 0.09202,0.901634 -0.10729,1.181539 -0.313051,0.439639 -0.999173,0.612043 -1.48425,0.372952 z"
       id="path862"
       inkscape:connector-curvature="0"
       transform="matrix(16.010167,0,0,16.010167,0.38839342,2.218536e-4)" />
    <path
       style="opacity:1;fill:#df5727;fill-opacity:1;stroke:none;stroke-width:2;stroke-linejoin:miter;stroke-miterlimit:4;stroke-dasharray:none;stroke-dashoffset:0;stroke-opacity:0.98678415"
       d="m 22.306135,14.978165 c -0.339446,-0.125084 -0.512675,-0.285826 -0.664616,-0.616706 -0.26178,-0.570076 -0.07011,-1.211322 0.450146,-1.505977 0.474429,-0.268702 1.032443,-0.19103 1.438019,0.200163 0.272969,0.263289 0.38578,0.59145 0.327853,0.953706 -0.121636,0.760674 -0.861842,1.222915 -1.551402,0.968814 z"
       id="path866"
       inkscape:connector-curvature="0"
       transform="matrix(16.010167,0,0,16.010167,0.38839342,2.218536e-4)" />
    <path
       style="opacity:1;fill:#df5727;fill-opacity:1;stroke:none;stroke-width:2;stroke-linejoin:miter;stroke-miterlimit:4;stroke-dasharray:none;stroke-dashoffset:0;stroke-opacity:0.98678415"
       d="M 22.905225,9.2233689 C 21.902829,8.6556433 22.32686,7.0540007 23.4772,7.0629113 c 0.914932,0.00709 1.48445,0.9102749 1.075143,1.7050486 -0.29846,0.5795348 -1.057441,0.7893841 -1.647118,0.455409 z"
       id="path868"
       inkscape:connector-curvature="0"
       transform="matrix(16.010167,0,0,16.010167,0.38839342,2.218536e-4)" />
    <path
       style="opacity:1;fill:#df5727;fill-opacity:1;stroke:none;stroke-width:2;stroke-linejoin:miter;stroke-miterlimit:4;stroke-dasharray:none;stroke-dashoffset:0;stroke-opacity:0.98678415"
       d="m 14.768249,10.971483 c -0.538592,-0.190441 -0.905555,-0.807067 -0.787622,-1.3234831 0.0799,-0.3498843 0.183529,-0.5126562 0.461222,-0.7244628 0.214895,-0.1639083 0.309257,-0.1891965 0.705982,-0.1891965 0.511174,0 0.720553,0.1070368 0.9933,0.5077852 0.180006,0.2644842 0.209151,0.8482182 0.0569,1.1396492 -0.135802,0.259945 -0.442058,0.524615 -0.711085,0.614527 -0.290405,0.09706 -0.383064,0.09386 -0.718697,-0.02482 z"
       id="path872"
       inkscape:connector-curvature="0"
       transform="matrix(16.010167,0,0,16.010167,0.38839342,2.218536e-4)" />
    <path
       style="opacity:1;fill:#df5727;fill-opacity:1;stroke:none;stroke-width:2;stroke-linejoin:miter;stroke-miterlimit:4;stroke-dasharray:none;stroke-dashoffset:0;stroke-opacity:0.98678415"
       d="m 12.763748,19.817797 c -0.416762,-0.115858 -0.718847,-0.413156 -0.838689,-0.825401 -0.209345,-0.720121 0.306591,-1.451481 1.057682,-1.499307 0.375795,-0.02393 0.604388,0.04923 0.852397,0.272787 0.627308,0.565467 0.532335,1.542917 -0.187796,1.932786 -0.289743,0.156863 -0.598253,0.198459 -0.883594,0.119135 z"
       id="path882"
       inkscape:connector-curvature="0"
       transform="matrix(16.010167,0,0,16.010167,0.38839342,2.218536e-4)" />
    <path
       style="opacity:1;fill:#df5727;fill-opacity:1;stroke:none;stroke-width:2;stroke-linejoin:miter;stroke-miterlimit:4;stroke-dasharray:none;stroke-dashoffset:0;stroke-opacity:0.98678415"
       d="m 15.259533,28.199963 c -0.992824,-0.321226 -1.098166,-1.700923 -0.167788,-2.197568 0.14683,-0.07838 0.275997,-0.102362 0.551304,-0.102362 0.533526,0 0.814532,0.171064 1.059469,0.64496 0.143027,0.276723 0.15456,0.757111 0.02417,1.006728 -0.292024,0.559048 -0.90532,0.830024 -1.467155,0.648242 z"
       id="path884"
       inkscape:connector-curvature="0"
       transform="matrix(16.010167,0,0,16.010167,0.38839342,2.218536e-4)" />
    <path
       style="opacity:1;fill:#df5727;fill-opacity:1;stroke:none;stroke-width:2;stroke-linejoin:miter;stroke-miterlimit:4;stroke-dasharray:none;stroke-dashoffset:0;stroke-opacity:0.98678415"
       d=""
       id="path900"
       inkscape:connector-curvature="0"
       transform="matrix(16.010167,0,0,16.010167,0.38839342,2.218536e-4)" />
    <path
       style="opacity:1;fill:#df5727;fill-opacity:1;stroke:none;stroke-width:2;stroke-linejoin:miter;stroke-miterlimit:4;stroke-dasharray:none;stroke-dashoffset:0;stroke-opacity:0.98678415"
       d=""
       id="path902"
       inkscape:connector-curvature="0"
       transform="matrix(16.010167,0,0,16.010167,0.38839342,2.218536e-4)" />
    <path
       style="opacity:1;fill:#df5727;fill-opacity:1;stroke:none;stroke-width:2;stroke-linejoin:miter;stroke-miterlimit:4;stroke-dasharray:none;stroke-dashoffset:0;stroke-opacity:0.98678415"
       d=""
       id="path904"
       inkscape:connector-curvature="0"
       transform="matrix(16.010167,0,0,16.010167,0.38839342,2.218536e-4)" />
    <path
       style="opacity:1;fill:#df5727;fill-opacity:1;stroke:none;stroke-width:2;stroke-linejoin:miter;stroke-miterlimit:4;stroke-dasharray:none;stroke-dashoffset:0;stroke-opacity:0.98678415"
       d=""
       id="path908"
       inkscape:connector-curvature="0"
       transform="matrix(16.010167,0,0,16.010167,0.38839342,2.218536e-4)" />
    <path
       style="opacity:1;fill:#df5727;fill-opacity:1;stroke:none;stroke-width:2;stroke-linejoin:miter;stroke-miterlimit:4;stroke-dasharray:none;stroke-dashoffset:0;stroke-opacity:0.98678415"
       d=""
       id="path910"
       inkscape:connector-curvature="0"
       transform="matrix(16.010167,0,0,16.010167,0.38839342,2.218536e-4)" />
    <path
       style="opacity:1;fill:#df5727;fill-opacity:1;stroke:none;stroke-width:2;stroke-linejoin:miter;stroke-miterlimit:4;stroke-dasharray:none;stroke-dashoffset:0;stroke-opacity:0.98678415"
       d=""
       id="path922"
       inkscape:connector-curvature="0"
       transform="matrix(16.010167,0,0,16.010167,0.38839342,2.218536e-4)" />
    <path
       style="opacity:1;fill:#df5727;fill-opacity:1;stroke:none;stroke-width:2;stroke-linejoin:miter;stroke-miterlimit:4;stroke-dasharray:none;stroke-dashoffset:0;stroke-opacity:0.98678415"
       d=""
       id="path924"
       inkscape:connector-curvature="0"
       transform="matrix(16.010167,0,0,16.010167,0.38839342,2.218536e-4)" />
    <ellipse
       style="opacity:1;fill:#ffffff;fill-opacity:1;stroke:none;stroke-width:32.02033234;stroke-linejoin:miter;stroke-miterlimit:4;stroke-dasharray:none;stroke-dashoffset:0;stroke-opacity:0.98678415"
       id="path863"
       cx="44.348511"
       cy="291.43954"
       rx="11.397068"
       ry="12.482503" />
    <ellipse
       style="opacity:1;fill:#ffffff;fill-opacity:1;stroke:none;stroke-width:32.02033234;stroke-linejoin:miter;stroke-miterlimit:4;stroke-dasharray:none;stroke-dashoffset:0;stroke-opacity:0.98678415"
       id="path865"
       cx="454.64294"
       cy="191.03679"
       rx="12.482503"
       ry="15.196091" />
    <ellipse
       style="opacity:1;fill:#ffffff;fill-opacity:1;stroke:none;stroke-width:32.02033234;stroke-linejoin:miter;stroke-miterlimit:4;stroke-dasharray:none;stroke-dashoffset:0;stroke-opacity:0.98678415"
       id="path867"
       cx="418.28088"
       cy="390.75684"
       rx="5.4271755"
       ry="13.02522" />
    <ellipse
       style="opacity:1;fill:#ffffff;fill-opacity:1;stroke:none;stroke-width:32.02033234;stroke-linejoin:miter;stroke-miterlimit:4;stroke-dasharray:none;stroke-dashoffset:0;stroke-opacity:0.98678415"
       id="path869"
       cx="354.78293"
       cy="454.79752"
       rx="11.397068"
       ry="10.854351" />
    <ellipse
       style="opacity:1;fill:#ffffff;fill-opacity:1;stroke:none;stroke-width:32.02033234;stroke-linejoin:miter;stroke-miterlimit:4;stroke-dasharray:none;stroke-dashoffset:0;stroke-opacity:0.98678415"
       id="path871"
       cx="171.34442"
       cy="449.37033"
       rx="9.2261982"
       ry="4.3417401" />
    <ellipse
       style="opacity:1;fill:#ffffff;fill-opacity:1;stroke:none;stroke-width:32.02033234;stroke-linejoin:miter;stroke-miterlimit:4;stroke-dasharray:none;stroke-dashoffset:0;stroke-opacity:0.98678415"
       id="path875"
       cx="240.81226"
       cy="50.472958"
       rx="14.653373"
       ry="13.567938" />
    <ellipse
       style="opacity:1;fill:#ffffff;fill-opacity:1;stroke:none;stroke-width:32.02033234;stroke-linejoin:miter;stroke-miterlimit:4;stroke-dasharray:none;stroke-dashoffset:0;stroke-opacity:0.98678415"
       id="path877"
       cx="54.117428"
       cy="192.66495"
       rx="9.2261982"
       ry="13.567938" />
    <ellipse
       style="opacity:1;fill:#ffffff;fill-opacity:1;stroke:none;stroke-width:32.02033234;stroke-linejoin:miter;stroke-miterlimit:4;stroke-dasharray:none;stroke-dashoffset:0;stroke-opacity:0.98678415"
       id="path879"
       cx="83.424171"
       cy="385.32968"
       rx="9.2261982"
       ry="10.854351" />
    <circle
       style="opacity:1;fill:#ffffff;fill-opacity:1;stroke:none;stroke-width:32.02033234;stroke-linejoin:miter;stroke-miterlimit:4;stroke-dasharray:none;stroke-dashoffset:0;stroke-opacity:0.98678415"
       id="path881"
       cx="121.95712"
       cy="441.77228"
       r="5.4271755" />
    <ellipse
       style="opacity:1;fill:#ffffff;fill-opacity:1;stroke:none;stroke-width:32.02033234;stroke-linejoin:miter;stroke-miterlimit:4;stroke-dasharray:none;stroke-dashoffset:0;stroke-opacity:0.98678415"
       id="path883"
       cx="200.65115"
       cy="466.19458"
       rx="7.0553279"
       ry="10.311632" />
    <ellipse
       style="opacity:1;fill:#ffffff;fill-opacity:1;stroke:none;stroke-width:32.02033234;stroke-linejoin:miter;stroke-miterlimit:4;stroke-dasharray:none;stroke-dashoffset:0;stroke-opacity:0.98678415"
       id="path885"
       cx="389.51685"
       cy="428.20435"
       rx="15.738808"
       ry="16.824242" />
    <ellipse
       style="opacity:1;fill:#ffffff;fill-opacity:1;stroke:none;stroke-width:32.02033234;stroke-linejoin:miter;stroke-miterlimit:4;stroke-dasharray:none;stroke-dashoffset:0;stroke-opacity:0.98678415"
       id="path887"
       cx="326.56161"
       cy="459.13925"
       rx="24.422287"
       ry="10.854351" />
    <ellipse
       style="opacity:1;fill:#ffffff;fill-opacity:1;stroke:none;stroke-width:32.02033234;stroke-linejoin:miter;stroke-miterlimit:4;stroke-dasharray:none;stroke-dashoffset:0;stroke-opacity:0.98678415"
       id="path889"
       cx="447.04489"
       cy="353.30933"
       rx="11.397068"
       ry="15.738808" />
    <ellipse
       style="opacity:1;fill:#ffffff;fill-opacity:1;stroke:none;stroke-width:32.02033234;stroke-linejoin:miter;stroke-miterlimit:4;stroke-dasharray:none;stroke-dashoffset:0;stroke-opacity:0.98678415"
       id="path891"
       cx="444.33133"
       cy="156.8456"
       rx="16.281527"
       ry="32.020332" />
    <ellipse
       style="opacity:1;fill:#ffffff;fill-opacity:1;stroke:none;stroke-width:32.02033234;stroke-linejoin:miter;stroke-miterlimit:4;stroke-dasharray:none;stroke-dashoffset:0;stroke-opacity:0.98678415"
       id="path893"
       cx="352.61206"
       cy="60.784592"
       rx="14.653373"
       ry="11.939785" />
    <ellipse
       style="opacity:1;fill:#ffffff;fill-opacity:1;stroke:none;stroke-width:32.02033234;stroke-linejoin:miter;stroke-miterlimit:4;stroke-dasharray:none;stroke-dashoffset:0;stroke-opacity:0.98678415"
       id="path895"
       cx="87.765907"
       cy="132.42331"
       rx="12.482503"
       ry="15.196091" />
  </g>
</svg>
